<?xml version="1.0" encoding="UTF-8" standalone="no"?>
<svg
   xmlns:dc="http://purl.org/dc/elements/1.1/"
   xmlns:cc="http://web.resource.org/cc/"
   xmlns:rdf="http://www.w3.org/1999/02/22-rdf-syntax-ns#"
   xmlns:svg="http://www.w3.org/2000/svg"
   xmlns="http://www.w3.org/2000/svg"
   xmlns:sodipodi="http://sodipodi.sourceforge.net/DTD/sodipodi-0.dtd"
   xmlns:inkscape="http://www.inkscape.org/namespaces/inkscape"
   version="1.1"
   id="Layer_1"
   width="669.195"
   height="519.115"
   viewBox="0 0 669.195 519.115"
   style="overflow:visible;enable-background:new 0 0 669.195 519.115;"
   xml:space="preserve"
   sodipodi:version="0.32"
   inkscape:version="0.45.1"
   sodipodi:docname="Gehirn, lateral - Lobi + Stammhirn + Cerebellum english.svg"
   inkscape:output_extension="org.inkscape.output.svg.inkscape"
   sodipodi:docbase="C:\"><metadata
   id="metadata290"><rdf:RDF><cc:Work
       rdf:about=""><dc:format>image/svg+xml</dc:format><dc:type
         rdf:resource="http://purl.org/dc/dcmitype/StillImage" /></cc:Work></rdf:RDF></metadata><defs
   id="defs288">
	
	
	
	
	
	
	
	
	
	
	
	
	
	
	
	
	
	
	
	
	
	
	
	
	
	
	
	
	
	
	
	
	
	
	
	
	
	
	
	
	
	
	
	
	
	
	
	
	
	
	
	
	
	
	
	
	
	

	
	
	
	
	
	
	
	
	
	
	

	
	
	
	
	
	
	
	
	
	
	
	

	
	
	
	
	
	
	
	
	
	
	
	

	
	
	
	
	
	
	
	
	
	
	
	
	

	
	
	
	
	
	
	
	
	
	

	
	
	
	
	
	
	
	
	
</defs><sodipodi:namedview
   inkscape:window-height="579"
   inkscape:window-width="801"
   inkscape:pageshadow="2"
   inkscape:pageopacity="0.0"
   guidetolerance="10.0"
   gridtolerance="10.0"
   objecttolerance="10.0"
   borderopacity="1.0"
   bordercolor="#666666"
   pagecolor="#ffffff"
   id="base"
   inkscape:zoom="0.72816237"
   inkscape:cx="334.5975"
   inkscape:cy="259.5575"
   inkscape:window-x="477"
   inkscape:window-y="415"
   inkscape:current-layer="Layer_1" />
<path
   style="opacity:0.5;fill:#00ffff"
   d="M 445.215,495.00786 C 435.24,503.08286 447.59,497.38286 426.2815,504.29886 C 415.34605,506.36036 408.4785,500.47036 400.09,491.68286 C 391.7015,482.89536 381.7835,471.21986 375.9125,464.61736 C 371.4665,459.61086 366.4885,455.22186 361.501,450.84236 C 356.5135,446.46381 351.507,442.11281 347.0135,437.18136 C 342.653,432.39336 341.0475,423.83386 337.865,422.33286 C 340.24,419.53986 340.5725,419.93886 341.646,416.46186 C 342.5295,413.62136 344.2205,411.61591 345.7785,409.19436 L 346.111,409.08986 C 348.25895,413.59286 354.5375,417.63986 357.2165,420.98481 C 358.4515,422.52381 359.1545,424.21481 359.582,426.00081 C 360.47405,429.70486 360.152,433.77181 360.8075,437.52431 C 364.2085,456.99931 391.87155,461.15081 416.25805,461.48331 L 416.23905,462.70881 C 420.28605,471.36331 431.44,480.75786 445.215,495.00786 z "
   id="path3" />
<path
   style="opacity:0.5;fill:#00ffff"
   d="M 335.015,364.85786 C 349.9395,372.63836 349.55,379.42136 347.5455,387.70536 C 346.206,393.25336 344.13405,399.47681 345.465,407.13286 C 345.579,407.79786 345.7975,408.44386 346.111,409.08986 L 345.7785,409.19436 C 344.2205,411.61686 342.5295,413.62136 341.646,416.46186 C 340.57155,419.93886 340.24,419.53891 337.865,422.33286 C 334.6825,420.83186 329.9135,426.37986 324.09,423.28286 C 316.7085,419.35936 307.408,413.84936 299.8555,406.79086 C 292.2935,399.73236 286.489,391.12631 286.09,381.00786 L 285.8525,380.64686 C 297.1575,373.22641 309.7355,366.71036 323.8715,365.11341 C 327.6145,364.69636 331.32995,364.56336 335.015,364.54341 L 335.015,364.85786 L 335.015,364.85786 z "
   id="path5" />
<path
   style="opacity:0.5;fill:#ff00ff"
   d="M 382.819,410.61936 C 388.139,409.20386 393.155,404.87186 398.9785,406.02136 C 395.948,411.99686 385.2605,412.89936 380.19605,416.68036 C 371.08555,423.48236 373.82155,430.36986 359.71405,425.97136 L 359.58105,425.99986 C 359.15355,424.21386 358.45055,422.52286 357.21555,420.98386 C 354.53655,417.63891 348.25705,413.59286 346.11005,409.08891 C 345.79655,408.44291 345.57805,407.79786 345.46405,407.13191 C 344.13405,399.47491 346.20505,393.25241 347.54455,387.70441 L 348.62755,387.97041 C 356.82605,390.48791 357.25355,402.00191 363.73255,406.75191 C 368.569,410.30586 376.9955,412.15836 382.819,410.61936 z "
   id="path7" />
<path
   style="opacity:0.5;fill:#ff00ff"
   d="M 540.329,400.42681 C 537.745,404.91936 534.971,408.97681 532.14,412.35881 C 508.5895,440.56431 485.001,459.03231 447.571,460.54281 C 440.52105,460.82781 428.8275,461.66476 416.25805,461.48331 C 391.87155,461.15081 364.2085,456.99931 360.8075,437.52431 C 360.152,433.77181 360.47405,429.70581 359.582,426.00081 L 359.715,425.97231 C 373.8225,430.37081 371.0865,423.48331 380.197,416.68131 C 385.2605,412.90126 395.948,411.99781 398.97945,406.02231 C 402.34245,406.05081 404.6215,413.12736 406.66495,415.12331 C 411.15845,419.51231 417.49495,424.38581 423.3479,426.71331 C 436.5719,431.97631 455.71345,428.07181 468.65245,423.74931 C 481.91445,419.32231 493.16245,413.42281 505.80695,407.37131 C 516.7025,402.14536 529.9455,406.12681 540.329,400.42681 z "
   id="path9" />
<path
   style="opacity:0.5;fill:#ff00ff"
   d="M 553.52355,340.72786 C 557.76055,358.25536 550.52155,382.74636 540.32805,400.42681 C 529.94455,406.12681 516.70155,402.14631 505.80505,407.37131 C 493.1596,413.42281 481.91255,419.32231 468.65055,423.74931 C 455.71155,428.07181 436.56905,431.97631 423.346,426.71331 C 417.494,424.38581 411.1575,419.51231 406.66305,415.12331 C 404.62055,413.12736 402.34055,406.05081 398.97755,406.02231 C 403.92705,406.02231 407.7451,406.76331 407.40405,400.39831 C 407.08105,394.50831 414.16805,389.66331 417.57855,385.42631 C 427.66755,372.90436 450.5711,373.13331 464.21405,365.40981 C 471.04455,361.55186 475.86105,357.52481 483.93605,355.98581 C 493.44555,354.17131 503.37305,354.76981 512.98705,353.53481 C 521.8895,352.38531 548.043,350.24781 553.52355,340.72786 z "
   id="path11" />
<path
   style="opacity:0.5;fill:#ff00ff"
   d="M 551.14,333.98286 C 552.166,336.08236 552.9545,338.33386 553.5245,340.72786 C 548.043,350.24781 521.8895,352.38531 512.988,353.53386 C 503.374,354.76886 493.4465,354.17036 483.937,355.98486 C 475.862,357.52386 471.04645,361.55091 464.215,365.40886 C 450.573,373.13236 427.6685,372.90436 417.5795,385.42536 C 414.169,389.66236 407.082,394.50736 407.405,400.39736 C 407.74605,406.76236 403.928,406.02136 398.9785,406.02136 C 393.155,404.87186 388.139,409.20386 382.819,410.61936 C 376.9955,412.15836 368.569,410.30586 363.7335,406.75286 C 357.2545,402.00286 356.82605,390.48981 348.6285,387.97136 L 347.5455,387.70536 C 349.54905,379.42136 349.9395,372.63931 335.015,364.85786 L 335.015,364.54436 C 346.8995,364.45886 358.5465,365.41836 370.222,360.90586 C 386.638,354.55131 402.4365,349.54386 419.185,344.26186 C 438.489,338.17236 453.898,330.85736 473.9715,327.71286 C 474.74195,327.58841 475.52095,327.47536 476.299,327.37086 C 493.40945,325.00536 509.6155,324.58736 526.74495,327.24736 C 534.173,328.40636 542.80945,331.33236 551.28345,333.40241 L 551.14,333.98286 z "
   id="path13" />
<path
   style="opacity:0.5;fill:#0000ff"
   d="M 478.52105,247.71431 C 490.055,204.61186 513.67105,163.97181 534.27655,124.50881 L 534.40955,124.39481 C 537.01255,127.43481 539.62505,130.56981 542.267,133.80931 C 543.825,135.71881 545.3165,137.64731 546.75955,139.60431 C 556.33555,152.52431 563.77405,166.47981 570.995,180.63481 C 576.752,191.90181 582.37505,203.29231 588.8455,214.39781 C 606.8955,245.37731 616.595,284.53631 597.9085,311.82981 C 591.24805,321.55781 583.37255,333.76531 570.43355,335.40881 C 564.60055,336.14981 557.98855,335.04781 551.2825,333.40431 C 542.8085,331.33331 534.17205,328.40731 526.744,327.24926 C 509.6155,324.58926 493.4085,325.00726 476.29805,327.37276 C 475.52,327.47726 474.74005,327.59031 473.97055,327.71476 L 473.95155,327.57226 C 469.079,299.89781 471.66205,273.36431 478.52105,247.71431 z "
   id="path15" />
<path
   style="opacity:0.5;fill:#ff0000"
   d="M 357.302,198.37036 C 342.919,202.91136 333.4,207.68036 315.8155,218.87136 C 300.492,228.61836 299.2475,232.67486 278.984,238.12786 C 276.7325,238.73586 274.443,239.38186 272.125,240.07536 L 272.0775,239.93286 C 272.0775,233.53936 271.498,229.91036 273.265,223.94436 C 280.048,206.94886 281.2355,191.25486 282.138,172.45436 C 282.8695,157.00736 287.99,143.52686 294.9535,130.05586 C 301.6225,117.14536 306.857,105.81186 315.6825,94.107858 C 323.919,83.192358 331.98355,72.276858 340.544,61.655858 C 345.2275,55.832358 351.241,40.128858 355.5825,34.941858 C 371.5425,35.559358 386.315,36.974858 400.242,39.492358 C 450.402,48.564858 489.6275,71.982358 534.40955,124.39386 L 534.27655,124.50786 C 513.67105,163.97086 490.05405,204.61186 478.52105,247.71336 C 459.46405,241.41391 440.87255,232.03836 422.17655,222.82336 C 403.46155,213.62736 384.65155,204.59286 365.14805,199.03536 C 363.458,198.37036 359.107,198.37036 357.302,198.37036 z "
   id="path17" />
<path
   style="opacity:0.5;fill:#00ff00"
   d="M 149.7555,342.03981 C 153.0425,321.81431 166.4755,299.45131 175.5765,290.90131 C 199.4215,268.48036 238.875,249.97531 272.125,240.07631 C 274.443,239.38281 276.7325,238.73681 278.984,238.12881 C 299.2475,232.67581 300.492,228.61931 315.8155,218.87231 C 333.4,207.68131 342.919,202.91231 357.302,198.37131 C 359.107,198.37131 363.458,198.37131 365.149,199.03631 C 384.6525,204.59381 403.4625,213.62831 422.1775,222.82431 C 440.8735,232.03931 459.465,241.41486 478.522,247.71431 C 471.663,273.36431 469.07995,299.89781 473.9525,327.57131 L 473.9715,327.71381 C 453.898,330.85831 438.489,338.17331 419.185,344.26281 C 402.4365,349.54481 386.638,354.55131 370.222,360.90681 C 358.5465,365.41931 346.8995,364.45981 335.015,364.54531 C 331.329,364.56526 327.6145,364.69731 323.8715,365.11531 C 309.73645,366.71226 297.1575,373.22831 285.8525,380.64876 C 268.2205,392.21976 253.7045,405.98526 241.25,406.65976 C 198.7565,408.95876 182.008,391.02276 158.9515,373.52376 C 149.6035,366.42631 147.71205,354.64536 149.7555,342.03981 z "
   id="path19" />
<path
   style="opacity:0.5;fill:#ffff00"
   d="M 119.15505,340.11131 C 99.689552,337.28981 82.285552,330.90581 64.311552,318.04281 C 50.061552,307.84076 42.870052,297.98926 35.232052,282.94031 C 25.333052,263.40831 24.050552,246.09076 19.766052,225.49381 C 13.676552,196.19581 25.238052,156.67581 47.705552,137.04881 C 59.428552,126.80781 68.881052,115.23681 80.528052,105.09081 C 94.426552,92.968808 114.75655,86.138308 131.63805,79.554808 C 176.63005,62.008308 194.43305,50.019308 229.53555,44.300308 C 268.44755,37.963808 316.17555,33.413308 355.58155,34.942808 C 351.24005,40.129808 345.22655,55.833308 340.54305,61.656808 C 331.9826,72.277808 323.91805,83.193308 315.68155,94.108808 C 306.8551,105.81281 301.62155,117.14631 294.95255,130.05681 C 287.98905,143.52781 282.86855,157.00831 282.13705,172.45531 C 281.23455,191.25581 280.04705,206.94981 273.26405,223.94531 C 271.49705,229.91131 272.07655,233.54031 272.07655,239.93381 L 272.12405,240.07631 C 238.87405,249.97531 199.42055,268.48131 175.57555,290.90131 C 166.47455,299.45131 153.04155,321.81431 149.75455,342.03981 C 138.84,342.02936 128.751,341.50686 119.15505,340.11131 z "
   id="path21" />
<path
   style="fill:none;stroke:#000000;stroke-width:3"
   d="M 150.1165,342.03981 C 149.993,342.03981 149.879,342.03981 149.7555,342.03981 C 138.84,342.02936 128.751,341.50686 119.156,340.11131 C 99.690502,337.28981 82.286502,330.90581 64.312502,318.04281 C 50.062502,307.84076 42.871002,297.98926 35.233002,282.94031 C 25.334002,263.40831 24.051502,246.09076 19.767002,225.49381 C 13.677502,196.19581 25.239002,156.67581 47.706502,137.04881 C 59.429502,126.80781 68.882002,115.23681 80.529002,105.09081 C 94.427502,92.968808 114.7575,86.138308 131.639,79.554808 C 176.631,62.008308 194.434,50.019308 229.5365,44.300308 C 268.4485,37.963808 316.1765,33.413308 355.5825,34.942808 C 371.5425,35.560308 386.315,36.975808 400.242,39.493308 C 450.402,48.565808 489.6275,71.983308 534.40955,124.39481 C 537.01255,127.43481 539.62505,130.56981 542.267,133.80931 C 543.825,135.71881 545.3165,137.64731 546.75955,139.60431 C 556.33555,152.52431 563.77405,166.47981 570.995,180.63481 C 576.752,191.90181 582.37505,203.29231 588.8455,214.39781 C 606.8955,245.37731 616.595,284.53631 597.9085,311.82981 C 591.24805,321.55781 583.37255,333.76531 570.43355,335.40881 C 564.60055,336.14981 557.98855,335.04781 551.2825,333.40431 C 542.8085,331.33331 534.17205,328.40731 526.744,327.24926 C 509.6155,324.58926 493.4085,325.00726 476.29805,327.37276 C 475.52,327.47726 474.74005,327.59031 473.97055,327.71476 C 453.89705,330.85926 438.48805,338.17426 419.18405,344.26376 C 402.43555,349.54576 386.63705,354.55226 370.22105,360.90776 C 358.54555,365.42026 346.89855,364.46076 335.01405,364.54626 C 331.32805,364.56621 327.61355,364.69826 323.87055,365.11626 C 309.7355,366.71321 297.15655,373.22926 285.85155,380.64971 C 268.21955,392.22071 253.70355,405.98621 241.24905,406.66071 C 198.75555,408.95971 182.00705,391.02371 158.95055,373.52471 C 149.60255,366.42821 147.71205,354.64821 149.75455,342.04171 C 153.04155,321.81621 166.47455,299.45321 175.57555,290.90321 C 199.42055,268.48226 238.87405,249.97721 272.12405,240.07821 C 274.44205,239.38471 276.73155,238.73871 278.98305,238.13071 C 299.24655,232.67771 300.49105,228.62121 315.81455,218.87421 C 333.39905,207.68321 342.91805,202.91421 357.30105,198.37321 C 357.82355,198.21171 358.35555,198.04071 358.89705,197.87921"
   id="path25" /><path
   style="fill:none;stroke:#000000;stroke-width:3"
   d="M 551.14,333.98286 C 552.166,336.08236 552.9545,338.33386 553.5245,340.72786 C 557.7615,358.25536 550.5225,382.74636 540.329,400.42681 C 537.745,404.91936 534.971,408.97681 532.14,412.35881 C 508.5895,440.56431 485.001,459.03231 447.571,460.54281 C 440.52105,460.82781 428.8275,461.66476 416.25805,461.48331 C 391.87155,461.15081 364.2085,456.99931 360.8075,437.52431 C 360.152,433.77181 360.47405,429.70581 359.582,426.00081 C 359.1545,424.21481 358.4515,422.52381 357.2165,420.98481 C 354.5375,417.63986 348.258,413.59381 346.111,409.08986 C 345.7975,408.44386 345.579,407.79881 345.465,407.13286 C 344.135,399.47586 346.206,393.25336 347.5455,387.70536 C 349.54905,379.42136 349.9395,372.63931 335.015,364.85786"
   id="path27" /><path
   style="fill:none;stroke:#000000;stroke-width:3"
   d="M 286.09,381.00786 C 286.489,391.12536 292.2935,399.73236 299.8555,406.79086 C 307.408,413.85031 316.7085,419.35936 324.09,423.28286 C 329.9135,426.37986 334.6825,420.83186 337.865,422.33286 C 341.0475,423.83386 342.653,432.39336 347.0135,437.18136 C 351.507,442.11186 356.5135,446.46381 361.501,450.84236 C 366.4885,455.22186 371.4665,459.61086 375.9125,464.61736 C 381.78445,471.21986 391.7015,482.89536 400.09,491.68286 C 408.4785,500.47036 415.347,506.36036 426.2815,504.29886 C 447.59,497.38286 435.24,503.08286 445.215,495.00786 C 431.44,480.75786 420.287,471.36236 416.24,462.70786"
   id="path29" /><path
   style="fill:none;stroke:#000000;stroke-width:3"
   d="M 63.628502,236.60786 C 65.063002,223.73536 69.908002,193.72486 76.301502,182.77136 C 83.474002,170.48786 102.5215,150.92736 113.665,141.60786 C 125.958,131.33836 139.2295,130.87286 151.665,120.70786 C 167.1025,108.09186 183.034,105.03286 201.7015,99.807858 C 214.7735,96.150358 225.252,91.077358 238.4285,88.407858"
   id="path31" /><path
   style="fill:none;stroke:#000000;stroke-width:3"
   d="M 273.265,223.94436 C 280.048,206.94886 281.2355,191.25486 282.138,172.45436 C 282.8695,157.00736 287.99,143.52686 294.9535,130.05586 C 301.6225,117.14536 306.857,105.81186 315.6825,94.107858 C 323.919,83.192358 331.98355,72.276858 340.544,61.655858 C 345.2275,55.832358 351.241,40.128858 355.5825,34.941858"
   id="path33" /><path
   style="fill:none;stroke:#000000;stroke-width:3"
   d="M 107.3285,261.30786 C 113.361,256.52936 116.9235,243.17236 121.265,236.60786 C 125.635,229.98636 126.5945,217.60786 132.665,212.54436 C 142.1935,204.60236 149.5465,199.30136 157.365,189.74436 C 164.7275,180.72886 172.717,179.02836 183.965,174.54436 C 193.8925,170.58286 203.478,165.72836 211.2015,158.07136"
   id="path35" /><path
   style="fill:none;stroke:#000000;stroke-width:3"
   d="M 243.815,185.46936 C 244.1095,172.40686 240.3,158.96436 245.05,146.51936 C 249.1445,135.78436 254.835,123.71936 260.7725,113.89636 C 267.185,103.30386 274.196,94.905858 279.421,83.372858 C 282.4325,76.741858 285.843,69.987358 289.7475,63.850358 C 293.4905,57.969858 300.1025,55.452358 304.805,50.559858 C 307.0565,48.213358 313.25905,36.775358 316.015,35.369358"
   id="path37" /><path
   style="fill:none;stroke:#000000;stroke-width:3"
   d="M 326.465,174.54436 C 326.465,161.07336 327.111,149.92036 331.519,137.19036 C 335.167,126.65486 344.401,119.35886 351.33505,110.57136 C 366.29755,91.637858 390.42755,61.836358 400.24105,39.492358 L 400.25055,39.482858"
   id="path39" /><path
   style="fill:none;stroke:#000000;stroke-width:3"
   d="M 195.365,342.37136 C 204.4185,336.86136 209.026,322.58286 218.146,315.61936 C 231.465,305.44486 248.793,298.18686 264.829,293.48436 C 274.69,290.58686 286.1375,287.32836 294.697,281.55141 C 302.6675,276.17536 309.2795,272.03241 318.276,268.40341 C 333.267,262.34241 346.89,255.73041 362.565,251.33191 C 376.606,247.38941 397.43,245.67941 408.165,235.34341 C 412.706,230.96391 417.5415,226.98341 422.1775,222.82241 C 425.968,219.41191 429.6255,215.88741 432.865,211.90691"
   id="path41" /><path
   style="fill:none;stroke:#000000;stroke-width:3"
   d="M 228.9285,372.14436 C 255.4525,350.37036 269.7595,339.93936 297.015,324.72036 C 311.531,316.61686 339.575,307.70586 355.915,303.58286 C 373.015,299.26986 386.847,293.38936 403.8805,290.45386 C 416.392,288.29736 432.713,287.79386 443.068,279.75686 C 449.8035,274.53186 467.2265,270.70336 472.765,264.47136"
   id="path43" /><path
   style="fill:none;stroke:#000000;stroke-width:3"
   d="M 557.0015,216.97136 C 557.0015,231.09786 562.6635,245.02486 560.8015,258.77136 C 559.19695,270.62641 561.2195,285.69436 555.1015,296.14436"
   id="path45" /><path
   style="fill:none;stroke:#000000;stroke-width:3"
   d="M 387.265,94.744358 C 398.988,94.307358 410.559,99.579858 421.465,103.46536 C 431.972,107.20836 444.9395,109.51686 454.449,115.16936 C 462.5145,119.95736 464.785,129.36236 473.354,133.84636 C 484.317,139.59386 495.261,144.30586 505.7015,150.47136"
   id="path47" /><path
   style="fill:none;stroke:#000000;stroke-width:3"
   d="M 361.3015,137.80786 C 365.738,138.96686 370.089,140.11636 374.459,141.03786 C 378.8385,141.94986 383.237,142.63386 387.7875,142.87136 C 395.1405,143.26086 399.9475,143.83086 404.03345,145.74986 C 408.12795,147.66886 411.49095,150.94636 415.936,156.72236 C 420.50645,169.70886 418.273,163.07786 429.28445,162.23236 C 434.15795,161.85236 439.4105,160.38936 444.93095,161.22536 C 447.69545,161.64336 450.50745,162.53636 453.28145,163.61936 C 456.05545,164.69286 458.78195,165.95636 461.36595,167.09636 C 465.84045,169.08186 469.77345,171.30486 473.16495,174.13586 C 476.5479,176.96686 479.37795,180.39636 481.64845,184.81386 C 486.70245,194.64636 485.71445,202.88286 482.1434,210.62536 C 478.56095,218.36786 472.38595,225.60686 467.0669,233.44436"
   id="path49" /><path
   style="fill:none;stroke:#000000;stroke-width:3"
   d="M 419.565,165.35786 C 412.079,175.84586 394.637,190.25736 389.165,203.67136"
   id="path51" /><path
   style="fill:none;stroke:#000000;stroke-width:3"
   d="M 518.365,197.97136 C 518.365,227.33586 524.1695,259.59786 511.4015,286.64436"
   id="path53" /><path
   style="fill:none;stroke:#000000;stroke-width:3"
   d="M 119.6025,340.39536 C 119.4505,340.30036 119.2985,340.20536 119.156,340.11036 C 89.649002,321.08186 85.592502,316.50191 78.277502,304.77036 C 73.983502,297.89236 68.958002,286.72986 64.901502,279.67136"
   id="path55" /><path
   style="fill:none;stroke:#000000;stroke-width:3"
   d="M 147.865,268.90786 C 158.0775,270.18086 173.5245,283.02486 183.965,283.63286"
   id="path57" /><path
   style="fill:none;stroke:#000000;stroke-width:3"
   d="M 228.3015,220.77136 C 233.289,230.00536 230.705,244.69236 231.7025,254.65786"
   id="path59" /><path
   style="fill:none;stroke:#000000;stroke-width:3"
   d="M 546.865,139.23286 C 546.8365,139.35636 546.7985,139.47986 546.7605,139.60336 C 544.927,145.79736 538.38245,151.13636 538.0015,158.07136"
   id="path61" /><path
   style="fill:none;stroke:#000000;stroke-width:3"
   d="M 571.09,180.55786 C 571.0615,180.58636 571.0235,180.60536 570.995,180.63386 C 566.90905,183.80686 561.87405,189.03186 558.9015,192.27136"
   id="path63" /><path
   style="fill:none;stroke:#000000;stroke-width:3"
   d="M 482.265,326.54436 C 486.0555,320.89186 487.9365,319.15336 487.965,311.34436"
   id="path65" /><path
   style="fill:none;stroke:#000000;stroke-width:3"
   d="M 356.865,198.39886 C 357.264,196.07136 357.9195,194.08586 357.5015,191.00786"
   id="path67" /><path
   style="fill:none;stroke:#000000;stroke-width:3"
   d="M 357.131,198.37036 C 357.1785,198.37036 357.245,198.37036 357.302,198.37036 C 359.107,198.37036 363.458,198.37036 365.149,199.03536"
   id="path69" /><path
   style="fill:none;stroke:#000000;stroke-width:2"
   d="M 348.6285,387.97136 C 356.827,390.48886 357.2545,402.00286 363.7335,406.75286 C 368.569,410.30586 376.9955,412.15836 382.819,410.61936 C 388.139,409.20386 393.155,404.87186 398.9785,406.02136 C 395.948,411.99686 385.2605,412.89936 380.19605,416.68036 C 371.08555,423.48236 373.82155,430.36986 359.71405,425.97136"
   id="path71" /><path
   style="fill:none;stroke:#000000;stroke-width:2"
   d="M 392.015,406.65786 C 394.7035,396.79686 387.018,391.22986 392.813,381.23586 C 398.1425,372.04936 398.9025,363.30936 409.761,358.79686 C 431.70695,349.67591 452.872,338.73286 475.3015,330.65786"
   id="path73" /><path
   style="fill:none;stroke:#000000;stroke-width:2"
   d="M 398.9785,406.02136 C 403.928,406.02136 407.74605,406.76236 407.405,400.39736 C 407.082,394.50736 414.169,389.66236 417.5795,385.42536 C 427.6685,372.90341 450.57205,373.13236 464.215,365.40886 C 471.0455,361.55091 475.862,357.52386 483.937,355.98486 C 493.4465,354.17036 503.374,354.76886 512.988,353.53386 C 521.8895,352.38436 548.043,350.24686 553.5245,340.72786 C 553.6385,340.53881 553.73445,340.34881 553.8285,340.15786"
   id="path75" /><path
   style="fill:none;stroke:#000000;stroke-width:2"
   d="M 398.9785,406.02136 C 402.3415,406.04986 404.62055,413.12641 406.664,415.12236 C 411.1575,419.51136 417.494,424.38486 423.34695,426.71236 C 436.57095,431.97536 455.7125,428.07086 468.6515,423.74836 C 481.9135,419.32136 493.1615,413.42186 505.806,407.37036 C 516.7025,402.14536 529.9455,406.12586 540.329,400.42586 C 540.3955,400.39736 540.462,400.35936 540.5285,400.32136"
   id="path77" /><path
   style="fill:none;stroke:#000000;stroke-width:2"
   d="M 398.0285,385.75786 C 399.691,377.05586 413.238,369.64586 420.3535,365.46586 C 426.1295,362.07531 432.713,360.51636 439.2015,359.15786 C 447.0105,357.52386 453.556,352.82136 460.928,350.03786 C 474.5415,344.90786 486.768,340.89886 501.303,339.43586 C 514.6885,338.08686 528.929,337.82086 541.8015,333.50786"
   id="path79" /><path
   style="fill:none;stroke:#000000;stroke-width:2"
   d="M 430.965,355.99436 C 460.2535,344.03386 487.87,330.34436 520.265,330.34436"
   id="path81" /><path
   style="fill:none;stroke:#000000;stroke-width:2"
   d="M 400.2515,400.64436 C 402.4365,387.53436 410.445,376.49536 423.194,372.14436 C 437.919,367.11886 451.713,360.80231 465.9915,354.68336 C 492.2305,343.41636 521.329,349.67591 547.5015,336.99436"
   id="path83" /><path
   style="fill:none;stroke:#000000;stroke-width:2"
   d="M 382.8285,404.75786 C 382.8285,394.61186 386.1535,385.55836 387.5785,375.62136 C 388.671,368.03086 395.0645,357.12486 402.7785,354.72136"
   id="path85" /><path
   style="fill:none;stroke:#000000;stroke-width:2"
   d="M 376.1785,406.34436 C 378.582,397.40486 380.6055,386.70786 380.463,377.43586 C 380.33,368.95141 385.07145,365.62641 388.5285,358.52136"
   id="path87" /><path
   style="fill:none;stroke:#000000;stroke-width:2"
   d="M 370.165,406.02136 C 374.383,390.98286 371.1625,377.01786 379.3515,362.64436"
   id="path89" /><path
   style="fill:none;stroke:#000000;stroke-width:2"
   d="M 362.8785,400.00786 C 364.8165,390.38436 367.0205,372.56236 373.015,364.85786"
   id="path91" /><path
   style="fill:none;stroke:#000000;stroke-width:2"
   d="M 358.1285,390.50786 C 357.929,384.53236 361.5675,373.04686 364.465,368.34436"
   id="path93" /><path
   style="fill:none;stroke:#000000;stroke-width:2"
   d="M 353.3785,383.85786 C 353.5305,380.20036 357.093,372.04936 359.0785,368.97136"
   id="path95" /><path
   style="fill:none;stroke:#000000;stroke-width:2"
   d="M 351.8015,374.35786 C 352.2575,373.69286 353.6065,369.97836 353.7015,368.97136"
   id="path97" /><path
   style="fill:none;stroke:#000000;stroke-width:2"
   d="M 414.5015,407.29436 C 424.315,404.19736 434.9075,408.13986 444.9015,407.29436 C 455.37145,406.40231 469.155,401.40436 478.8545,397.26236 C 490.644,392.23686 501.8635,398.03186 513.596,394.70686 C 522.21155,392.25586 533.432,393.46236 541.4785,389.24436"
   id="path99" /><path
   style="fill:none;stroke:#000000;stroke-width:2"
   d="M 421.1515,413.94436 C 435.6865,418.76086 446.545,414.12486 460.9565,411.98736 C 469.307,410.74191 476.0045,410.44836 484.09755,407.84536 C 489.46505,406.12586 494.406,402.94336 500.00055,401.90786"
   id="path101" /><path
   style="fill:none;stroke:#000000;stroke-width:2"
   d="M 415.765,395.25786 C 425.398,393.88986 433.473,384.76036 442.745,381.58736 C 455.47405,377.22591 467.5685,371.75391 480.1275,366.99536 C 493.247,362.02686 506.452,361.37136 520.3315,361.37136 C 525.357,361.37136 530.6675,362.17886 535.5315,360.50686 C 540.538,358.77786 545.3925,355.90886 550.665,355.04436"
   id="path103" /><path
   style="fill:none;stroke:#000000;stroke-width:2"
   d="M 415.4515,400.64436 C 425.7875,398.65886 436.266,392.93986 446.45,389.84286 C 458.743,386.10081 471.416,382.18586 483.443,377.64486 C 494.121,373.61686 502.6995,369.68386 514.337,369.01886 C 525.984,368.35386 538.429,369.22786 549.4015,364.54436"
   id="path105" /><path
   style="fill:none;stroke:#000000;stroke-width:2"
   d="M 434.4515,400.64436 C 451.6465,393.27236 471.75895,391.79036 489.3805,384.85536 C 499.593,380.83781 509.283,377.77786 520.3505,377.76836 C 530.10795,377.75886 538.3245,377.02736 547.5015,373.40786"
   id="path107" /><path
   style="fill:none;stroke:#000000;stroke-width:2"
   d="M 504.7515,388.60786 C 509.568,386.32786 517.263,384.67486 522.526,384.16186 C 526.5255,383.76286 530.5345,384.42691 534.5245,383.83886 C 537.897,383.34391 541.1555,381.31186 544.6515,381.64341"
   id="path109" /><path
   style="fill:none;stroke:#000000;stroke-width:2"
   d="M 398.3515,412.35786 C 400.6505,425.53436 427.374,432.58336 437.6815,434.59736 C 456.39555,438.25486 475.47155,436.57336 494.3015,440.22136"
   id="path111" /><path
   style="fill:none;stroke:#000000;stroke-width:2"
   d="M 393.6015,416.15786 C 397.525,421.29736 402.3605,423.60586 406.9015,427.87136 C 412.6775,433.30536 420.69645,435.23386 428.286,437.40936 C 437.634,440.09786 447.229,442.11186 456.862,443.47036 C 464.43445,444.53436 476.679,443.26136 483.215,447.82136"
   id="path113" /><path
   style="fill:none;stroke:#000000;stroke-width:2"
   d="M 388.5285,419.00786 C 394.0765,421.61086 398.6175,428.10886 403.415,431.99436 C 407.5475,435.32886 414.1785,438.00786 424.6285,441.49436 C 432.219,444.02136 440.408,446.83336 448.065,449.04686 C 453.6985,450.68086 462.1155,450.66186 467.065,453.84436"
   id="path115" /><path
   style="fill:none;stroke:#000000;stroke-width:2"
   d="M 384.1015,419.64436 C 383.275,426.08536 401.9425,436.99136 406.607,440.04086 C 418.39555,447.75486 434.233,451.05231 447.4285,455.74436"
   id="path117" /><path
   style="fill:none;stroke:#000000;stroke-width:2"
   d="M 381.2515,424.39436 C 381.9355,431.50986 396.1,439.82236 401.2015,444.02136 C 409.0485,450.49086 419.679,453.79686 429.065,457.32136"
   id="path119" /><path
   style="fill:none;stroke:#000000;stroke-width:2"
   d="M 396.1285,456.37136 C 386.885,451.88736 377.9835,441.46586 376.5015,431.04436"
   id="path121" /><path
   style="fill:none;stroke:#000000;stroke-width:2"
   d="M 371.115,431.67136 C 370.982,436.37386 376.967,452.10586 382.2015,453.20786"
   id="path123" /><path
   style="fill:none;stroke:#000000;stroke-width:2"
   d="M 382.8285,435.15786 C 385.5455,445.47486 402.3225,452.20086 410.7015,457.00786"
   id="path125" /><path
   style="fill:none;stroke:#000000;stroke-width:2"
   d="M 365.7285,431.67136 C 365.1205,436.97236 367.9705,442.61536 370.8015,446.55786"
   id="path127" /><path
   style="fill:none;stroke:#000000;stroke-width:2"
   d="M 462.315,429.77136 C 468.471,429.79036 474.532,430.99686 480.6785,431.29136 C 487.5945,431.61436 493.9405,435.33931 500.6285,435.47136"
   id="path129" /><path
   style="fill:none;stroke:#000000;stroke-width:2"
   d="M 481.6285,424.39436 C 489.048,424.90736 496.1065,431.16786 503.4785,432.62136"
   id="path131" /><path
   style="fill:none;stroke:#000000;stroke-width:2"
   d="M 493.665,418.05786 C 498.9565,419.40686 506.0245,423.31136 509.5015,427.24436"
   id="path133" /><path
   style="fill:none;stroke:#000000;stroke-width:2"
   d="M 504.4285,412.35786 C 507.9055,414.49536 514.3085,419.03636 515.8285,422.80786"
   id="path135" /><path
   style="fill:none;stroke:#000000;stroke-width:2"
   d="M 522.165,406.65786 C 520.93,409.56486 519.467,416.10086 519.6285,419.32136"
   id="path137" /><path
   style="fill:none;stroke:#000000;stroke-width:2"
   d="M 337.865,422.33286 C 340.24,419.53986 340.5725,419.93886 341.646,416.46186 C 342.5295,413.62136 344.2205,411.61591 345.7785,409.19436"
   id="path139" />
<path
   d="M 35.735552,53.034608 L 35.735552,36.706958 L 46.734652,36.706958 L 46.734652,38.636408 L 37.902502,38.636408 L 37.902502,43.683758 L 45.547152,43.683758 L 45.547152,45.613208 L 37.902502,45.613208 L 37.902502,53.035558 L 35.735552,53.035558 L 35.735552,53.034608 z "
   id="path143" /><path
   d="M 49.276852,53.034608 L 49.276852,41.204258 L 51.073302,41.204258 L 51.073302,43.004508 C 51.534052,42.162808 51.960602,41.608008 52.351052,41.340108 C 52.741502,41.072208 53.170902,40.938258 53.639252,40.938258 C 54.316602,40.938258 55.004402,41.154858 55.703602,41.586158 L 55.002502,43.441508 C 54.513252,43.158408 54.024952,43.016858 53.536652,43.016858 C 53.099652,43.016858 52.706352,43.148908 52.358652,43.412058 C 52.010952,43.675208 51.763002,44.040958 51.613852,44.508358 C 51.390602,45.220858 51.279452,45.999858 51.279452,46.846308 L 51.279452,53.036508 L 49.276852,53.036508 L 49.276852,53.034608 z "
   id="path145" /><path
   d="M 56.141552,47.118958 C 56.141552,44.928258 56.749552,43.305658 57.966502,42.251158 C 58.982052,41.374308 60.221802,40.936358 61.683852,40.936358 C 63.308352,40.936358 64.636452,41.469308 65.668152,42.535208 C 66.698902,43.601108 67.214752,45.073608 67.214752,46.951758 C 67.214752,48.474608 66.986752,49.671608 66.530752,50.543708 C 66.074752,51.416758 65.409752,52.094108 64.538602,52.576708 C 63.667452,53.059308 62.715552,53.300608 61.683852,53.300608 C 60.028952,53.300608 58.692302,52.769558 57.672002,51.707458 C 56.651702,50.647258 56.141552,49.117758 56.141552,47.118958 z M 58.204952,47.120858 C 58.204952,48.636108 58.534602,49.769458 59.194852,50.523758 C 59.854152,51.277108 60.683502,51.654258 61.684802,51.654258 C 62.677552,51.654258 63.504052,51.276158 64.163352,50.518058 C 64.822652,49.759958 65.153252,48.606658 65.153252,47.054358 C 65.153252,45.591358 64.821702,44.483658 64.158602,43.729358 C 63.495502,42.975058 62.671852,42.598858 61.685752,42.598858 C 60.685402,42.598858 59.855102,42.974108 59.195802,43.723658 C 58.534602,44.474158 58.204952,45.606558 58.204952,47.120858 z "
   id="path147" /><path
   d="M 69.564102,53.034608 L 69.564102,41.204258 L 71.360552,41.204258 L 71.360552,42.885758 C 72.229802,41.587108 73.483802,40.937308 75.125402,40.937308 C 75.837902,40.937308 76.493402,41.065558 77.090952,41.321108 C 77.688502,41.577608 78.135952,41.913908 78.433302,42.330008 C 78.730652,42.746108 78.937752,43.240108 79.057452,43.812008 C 79.131552,44.183458 79.168602,44.833258 79.168602,45.761408 L 79.168602,53.035558 L 77.165052,53.035558 L 77.165052,45.838358 C 77.165052,45.021358 77.087152,44.410508 76.931352,44.005808 C 76.775552,43.601108 76.499102,43.278108 76.102002,43.035858 C 75.705852,42.794558 75.240352,42.673908 74.705502,42.673908 C 73.853352,42.673908 73.116152,42.944658 72.497702,43.487108 C 71.878302,44.028608 71.568602,45.057458 71.568602,46.572708 L 71.568602,53.034608 L 69.564102,53.034608 L 69.564102,53.034608 z "
   id="path149" /><path
   d="M 86.623252,51.249558 L 86.920602,53.019408 C 86.355352,53.138158 85.849952,53.198008 85.404402,53.198008 C 84.674802,53.198008 84.110502,53.083058 83.708652,52.852208 C 83.306802,52.621358 83.024652,52.319258 82.861252,51.943058 C 82.697852,51.567808 82.616152,50.778358 82.616152,49.573758 L 82.616152,42.762258 L 81.131302,42.762258 L 81.131302,41.203308 L 82.616152,41.203308 L 82.616152,38.276358 L 84.619702,37.073658 L 84.619702,41.204258 L 86.623252,41.204258 L 86.623252,42.763208 L 84.619702,42.763208 L 84.619702,49.688708 C 84.619702,50.261558 84.654852,50.629208 84.725152,50.792608 C 84.794502,50.956008 84.909452,51.087108 85.068102,51.183058 C 85.226752,51.279008 85.453802,51.327458 85.749252,51.327458 C 85.969652,51.327458 86.261302,51.301808 86.623252,51.249558 z "
   id="path151" /><path
   d="M 96.298052,51.580158 C 95.552302,52.210008 94.836952,52.653658 94.152002,52.913008 C 93.466102,53.171408 92.730802,53.301558 91.946102,53.301558 C 90.649352,53.301558 89.652802,52.984258 88.956452,52.348708 C 88.260102,51.714108 87.911452,50.901858 87.911452,49.913858 C 87.911452,49.334358 88.042552,48.805208 88.306652,48.326408 C 88.568852,47.847608 88.913702,47.462858 89.340252,47.173108 C 89.765852,46.883358 90.245602,46.663908 90.779502,46.515708 C 91.171852,46.412158 91.764652,46.311458 92.557902,46.215508 C 94.172902,46.022658 95.362302,45.791808 96.125152,45.523908 C 96.132752,45.249358 96.136552,45.075508 96.136552,45.001408 C 96.136552,44.186308 95.947502,43.611558 95.570352,43.278108 C 95.059252,42.825908 94.299252,42.599808 93.292252,42.599808 C 92.351752,42.599808 91.656352,42.764158 91.208902,43.093808 C 90.760502,43.423458 90.429902,44.005808 90.215202,44.841808 L 88.255352,44.574858 C 88.433002,43.736958 88.726552,43.060558 89.134102,42.544708 C 89.541652,42.029808 90.131602,41.632708 90.902052,41.355308 C 91.674402,41.077908 92.567402,40.938258 93.582952,40.938258 C 94.591852,40.938258 95.411702,41.057008 96.041552,41.294508 C 96.672352,41.532008 97.135002,41.830308 97.432352,42.189408 C 97.729702,42.549458 97.936802,43.003558 98.055552,43.552658 C 98.122052,43.893708 98.155302,44.510258 98.155302,45.401358 L 98.155302,48.074658 C 98.155302,49.938558 98.198052,51.118458 98.283552,51.613408 C 98.370002,52.108358 98.540052,52.582408 98.793702,53.035558 L 96.700852,53.035558 C 96.490902,52.620408 96.356952,52.134958 96.298052,51.580158 z M 96.134652,47.097108 C 95.407902,47.394458 94.317302,47.646208 92.863802,47.854258 C 92.040152,47.973008 91.457802,48.106958 91.116752,48.255158 C 90.775702,48.403358 90.511602,48.620908 90.326352,48.906858 C 90.141102,49.192808 90.048952,49.510108 90.048952,49.858758 C 90.048952,50.393608 90.250352,50.838208 90.654102,51.194458 C 91.057852,51.550708 91.647802,51.729308 92.424902,51.729308 C 93.195352,51.729308 93.879352,51.560208 94.479752,51.222008 C 95.079202,50.883808 95.520002,50.422108 95.801202,49.835958 C 96.016852,49.382808 96.123252,48.715908 96.123252,47.833358 L 96.134652,47.097108 z "
   id="path153" /><path
   d="M 101.21525,53.034608 L 101.21525,36.706958 L 103.2188,36.706958 L 103.2188,53.035558 L 101.21525,53.035558 L 101.21525,53.034608 z "
   id="path155" /><path
   d="M 112.61525,53.034608 L 112.61525,36.706958 L 114.6188,36.706958 L 114.6188,53.035558 L 112.61525,53.035558 L 112.61525,53.034608 z "
   id="path157" /><path
   d="M 116.9824,47.118958 C 116.9824,44.928258 117.5904,43.305658 118.80735,42.251158 C 119.8229,41.374308 121.06265,40.936358 122.5247,40.936358 C 124.1492,40.936358 125.4773,41.469308 126.509,42.535208 C 127.53975,43.601108 128.0556,45.073608 128.0556,46.951758 C 128.0556,48.474608 127.8276,49.671608 127.3716,50.543708 C 126.9156,51.416758 126.2506,52.094108 125.37945,52.576708 C 124.5083,53.059308 123.5564,53.300608 122.5247,53.300608 C 120.8698,53.300608 119.53315,52.769558 118.51285,51.707458 C 117.49255,50.647258 116.9824,49.117758 116.9824,47.118958 z M 119.0458,47.120858 C 119.0458,48.636108 119.37545,49.769458 120.0357,50.523758 C 120.695,51.277108 121.52435,51.654258 122.52565,51.654258 C 123.5184,51.654258 124.3449,51.276158 125.0042,50.518058 C 125.6635,49.759958 125.9941,48.606658 125.9941,47.054358 C 125.9941,45.591358 125.66255,44.483658 124.99945,43.729358 C 124.33635,42.975058 123.5127,42.598858 122.5266,42.598858 C 121.52625,42.598858 120.69595,42.974108 120.03665,43.723658 C 119.37545,44.474158 119.0458,45.606558 119.0458,47.120858 z "
   id="path159" /><path
   d="M 132.2603,53.034608 L 130.40495,53.034608 L 130.40495,36.706958 L 132.4085,36.706958 L 132.4085,42.529508 C 133.25495,41.468358 134.3351,40.937308 135.6499,40.937308 C 136.3776,40.937308 137.06635,41.083608 137.71615,41.377158 C 138.36595,41.670708 138.9008,42.083008 139.31975,42.614058 C 139.7387,43.145108 140.0674,43.785408 140.3049,44.534958 C 140.5424,45.285458 140.66115,46.087258 140.66115,46.941308 C 140.66115,48.968608 140.15955,50.535158 139.1573,51.641908 C 138.15505,52.748658 136.9514,53.301558 135.5473,53.301558 C 134.14985,53.301558 133.0545,52.719208 132.2603,51.553558 L 132.2603,53.034608 L 132.2603,53.034608 z M 132.23085,47.030608 C 132.23085,48.448958 132.4237,49.474008 132.8094,50.105758 C 133.4402,51.138408 134.29425,51.654258 135.36965,51.654258 C 136.24555,51.654258 137.0027,51.274258 137.6411,50.512358 C 138.2795,49.751408 138.5987,48.616158 138.5987,47.108508 C 138.5987,45.563808 138.2928,44.423808 137.68005,43.687558 C 137.0673,42.952258 136.32725,42.584608 135.45895,42.584608 C 134.58305,42.584608 133.8259,42.965558 133.1875,43.726508 C 132.55005,44.488408 132.23085,45.589458 132.23085,47.030608 z "
   id="path161" /><path
   d="M 151.16815,49.219408 L 153.2458,49.486358 C 152.919,50.694758 152.3148,51.633358 151.43225,52.300258 C 150.54875,52.968108 149.42205,53.301558 148.04835,53.301558 C 146.3203,53.301558 144.9485,52.768608 143.93675,51.702708 C 142.92405,50.636808 142.4177,49.142458 142.4177,47.218708 C 142.4177,45.228458 142.92975,43.683758 143.95385,42.584608 C 144.977,41.485458 146.30605,40.936358 147.93815,40.936358 C 149.51895,40.936358 150.80905,41.475008 151.8113,42.551358 C 152.8126,43.628658 153.3142,45.143908 153.3142,47.096158 C 153.3142,47.214908 153.3104,47.393508 153.3028,47.631008 L 144.48205,47.631008 C 144.55615,48.931558 144.92285,49.927158 145.58405,50.617808 C 146.24335,51.309408 147.06795,51.654258 148.05405,51.654258 C 148.7884,51.654258 149.4154,51.460458 149.9341,51.073808 C 150.45185,50.686208 150.8632,50.068708 151.16815,49.219408 z M 144.59985,45.983708 L 151.19095,45.983708 C 151.10165,44.988108 150.8499,44.241408 150.4357,43.743608 C 149.79825,42.971258 148.97175,42.584608 147.95715,42.584608 C 147.0385,42.584608 146.26615,42.893358 145.6401,43.509908 C 145.01215,44.126458 144.6654,44.951058 144.59985,45.983708 z "
   id="path163" />
<path
   d="M 88.775002,428.08606 L 88.775002,413.68786 L 83.401802,413.68786 L 83.401802,411.75841 L 96.345552,411.75841 L 96.345552,413.68786 L 90.941952,413.68786 L 90.941952,428.08606 L 88.775002,428.08606 z "
   id="path167" /><path
   d="M 103.84865,424.27086 L 105.9263,424.53781 C 105.5995,425.74621 104.9953,426.68481 104.11275,427.35171 C 103.22925,428.01956 102.10255,428.35301 100.72885,428.35301 C 99.000802,428.35301 97.629002,427.82006 96.617252,426.75416 C 95.604552,425.68921 95.098202,424.19391 95.098202,422.27016 C 95.098202,420.27991 95.610252,418.73521 96.634352,417.63606 C 97.657502,416.53786 98.986552,415.98781 100.61865,415.98781 C 102.19945,415.98781 103.48955,416.52646 104.4918,417.60281 C 105.4931,418.68011 105.9947,420.19536 105.9947,422.14761 C 105.9947,422.26636 105.9909,422.44496 105.9833,422.68246 L 97.162552,422.68246 C 97.236652,423.98206 97.603352,424.97861 98.264552,425.66926 C 98.923852,426.36086 99.748452,426.70571 100.73455,426.70571 C 101.4689,426.70571 102.0959,426.51191 102.6146,426.12526 C 103.1333,425.73766 103.54465,425.12016 103.84865,424.27086 z M 97.280352,421.03516 L 103.87145,421.03516 C 103.78215,420.03956 103.5304,419.29286 103.1162,418.79506 C 102.47875,418.02271 101.65225,417.63606 100.63765,417.63606 C 99.719002,417.63606 98.946652,417.94481 98.320602,418.56136 C 97.693602,419.17791 97.346852,420.00251 97.280352,421.03516 z "
   id="path169" /><path
   d="M 108.45045,428.08606 L 108.45045,416.25571 L 110.2469,416.25571 L 110.2469,417.91441 C 110.6174,417.33586 111.11045,416.86941 111.72605,416.51696 C 112.3407,416.16451 113.0418,415.98781 113.82745,415.98781 C 114.7024,415.98781 115.41965,416.16926 115.98015,416.53311 C 116.5397,416.89696 116.9349,417.40521 117.1648,418.05786 C 118.1015,416.67751 119.3213,415.98686 120.8242,415.98686 C 121.99935,415.98686 122.9028,416.31176 123.53455,416.96156 C 124.16725,417.61136 124.4836,418.61171 124.4836,419.96356 L 124.4836,428.08416 L 122.48005,428.08416 L 122.48005,420.63046 C 122.48005,419.82866 122.4145,419.25106 122.28435,418.89861 C 122.1542,418.54616 121.9186,418.26211 121.57755,418.04646 C 121.23555,417.83081 120.83465,417.72346 120.3739,417.72346 C 119.5417,417.72346 118.85105,417.99991 118.301,418.55376 C 117.75095,419.10666 117.4764,419.99301 117.4764,421.21091 L 117.4764,428.08416 L 115.47285,428.08416 L 115.47285,420.39676 C 115.47285,419.50566 115.30945,418.83686 114.9836,418.39226 C 114.6568,417.94576 114.1229,417.72346 113.38095,417.72346 C 112.8176,417.72346 112.29605,417.87166 111.81725,418.16996 C 111.3394,418.46731 110.99265,418.90146 110.777,419.47241 C 110.56135,420.04526 110.45495,420.86986 110.45495,421.94621 L 110.45495,428.08511 L 108.45045,428.08511 L 108.45045,428.08606 z "
   id="path171" /><path
   d="M 127.43905,432.61376 L 127.43905,416.25571 L 129.26495,416.25571 L 129.26495,417.79566 C 129.69625,417.19336 130.1817,416.74211 130.7251,416.44001 C 131.2666,416.13981 131.92495,415.98781 132.6973,415.98781 C 133.70715,415.98781 134.59825,416.24716 135.3706,416.76776 C 136.14295,417.28741 136.72625,418.01986 137.1205,418.96701 C 137.5138,419.91416 137.7114,420.95156 137.7114,422.08016 C 137.7114,423.29046 137.49385,424.38011 137.0597,425.34911 C 136.6246,426.31906 135.9938,427.06101 135.1654,427.57686 C 134.337,428.09366 133.46585,428.35111 132.5529,428.35111 C 131.8841,428.35111 131.28465,428.21051 130.7536,427.92836 C 130.2216,427.64621 129.78555,427.28996 129.4445,426.85961 L 129.4445,432.61186 L 127.43905,432.61186 L 127.43905,432.61376 z M 129.24975,422.23976 C 129.24975,423.76261 129.55755,424.88646 130.17315,425.61416 C 130.7878,426.34281 131.5345,426.70571 132.40945,426.70571 C 133.2996,426.70571 134.0615,426.32951 134.6961,425.57521 C 135.32975,424.82186 135.64705,423.65526 135.64705,422.07256 C 135.64705,420.56491 135.33735,419.43726 134.71795,418.68771 C 134.09855,417.93721 133.3585,417.56196 132.49875,417.56196 C 131.64565,417.56196 130.8904,417.96096 130.2349,418.75991 C 129.57845,419.55791 129.24975,420.71691 129.24975,422.23976 z "
   id="path173" /><path
   d="M 139.3777,422.17041 C 139.3777,419.97971 139.9857,418.35616 141.20265,417.30261 C 142.2182,416.42576 143.45795,415.98781 144.92,415.98781 C 146.5445,415.98781 147.8726,416.52171 148.9043,417.58666 C 149.93505,418.65256 150.4509,420.12506 150.4509,422.00321 C 150.4509,423.52606 150.2229,424.72306 149.7669,425.59516 C 149.3109,426.46821 148.6459,427.14556 147.77475,427.62816 C 146.9036,428.11171 145.9517,428.35301 144.92,428.35301 C 143.2651,428.35301 141.92845,427.82196 140.90815,426.75986 C 139.8869,425.69871 139.3777,424.16826 139.3777,422.17041 z M 141.44015,422.17231 C 141.44015,423.68756 141.7698,424.82091 142.43005,425.57426 C 143.08935,426.32856 143.9187,426.70476 144.92,426.70476 C 145.91275,426.70476 146.73925,426.32666 147.39855,425.56856 C 148.05785,424.81141 148.38845,423.65716 148.38845,422.10486 C 148.38845,420.64186 148.0569,419.53416 147.3938,418.78081 C 146.7307,418.02651 145.90705,417.65031 144.92095,417.65031 C 143.9206,417.65031 143.0903,418.02556 142.431,418.77606 C 141.77075,419.52561 141.44015,420.65801 141.44015,422.17231 z "
   id="path175" /><path
   d="M 152.78505,428.08606 L 152.78505,416.25571 L 154.5815,416.25571 L 154.5815,418.05596 C 155.04225,417.21426 155.4688,416.65946 155.85925,416.39061 C 156.2497,416.12366 156.6791,415.98876 157.14745,415.98876 C 157.8248,415.98876 158.5126,416.20536 159.2118,416.63666 L 158.5107,418.49106 C 158.02145,418.20891 157.53315,418.06736 157.04485,418.06736 C 156.60785,418.06736 156.21455,418.19941 155.86685,418.46256 C 155.51915,418.72571 155.2712,419.09146 155.12205,419.55886 C 154.8988,420.27136 154.78765,421.05036 154.78765,421.89681 L 154.78765,428.08701 L 152.78505,428.08701 L 152.78505,428.08606 z "
   id="path177" /><path
   d="M 168.1114,426.63161 C 167.36565,427.26146 166.6503,427.70511 165.96535,427.96446 C 165.27945,428.22286 164.54415,428.35301 163.75945,428.35301 C 162.4627,428.35301 161.46615,428.03571 160.7698,427.40016 C 160.07345,426.76556 159.7248,425.95331 159.7248,424.96531 C 159.7248,424.38581 159.8559,423.85571 160.12,423.37691 C 160.3822,422.89811 160.72705,422.51336 161.1536,422.22361 C 161.5792,421.93291 162.05895,421.71441 162.59285,421.56621 C 162.9852,421.46266 163.578,421.36196 164.37125,421.26601 C 165.98625,421.07316 167.17565,420.84326 167.9385,420.57441 C 167.9461,420.30081 167.9499,420.12601 167.9499,420.05191 C 167.9499,419.23681 167.76085,418.66206 167.3837,418.32861 C 166.8726,417.87641 166.1126,417.65031 165.1056,417.65031 C 164.1651,417.65031 163.4697,417.81466 163.02225,418.14431 C 162.5748,418.47396 162.24325,419.05631 162.02855,419.89231 L 160.0687,419.62536 C 160.24635,418.78746 160.5399,418.11106 160.94745,417.59521 C 161.355,417.08031 161.94495,416.68321 162.7154,416.40486 C 163.48775,416.12746 164.38075,415.98876 165.3963,415.98876 C 166.4052,415.98876 167.22505,416.10751 167.8549,416.34501 C 168.4857,416.58251 168.94835,416.87986 169.2457,417.23991 C 169.54305,417.59996 169.75015,418.05406 169.8689,418.60316 C 169.9354,418.94421 169.96865,419.56171 169.96865,420.45186 L 169.96865,423.12516 C 169.96865,424.99001 170.0114,426.16896 170.0969,426.66391 C 170.18335,427.15886 170.3534,427.63291 170.60705,428.08606 L 168.5142,428.08606 C 168.30425,427.67186 168.1703,427.18736 168.1114,426.63161 z M 167.948,422.14856 C 167.22125,422.44591 166.13065,422.69766 164.67715,422.90571 C 163.8535,423.02446 163.27115,423.15841 162.9301,423.30661 C 162.58905,423.45481 162.32495,423.67236 162.1397,423.95831 C 161.95445,424.24426 161.8623,424.56156 161.8623,424.91021 C 161.8623,425.44506 162.0637,425.88966 162.46745,426.24591 C 162.8712,426.60216 163.46115,426.78076 164.23825,426.78076 C 165.0087,426.78076 165.6927,426.61166 166.2931,426.27346 C 166.89255,425.93621 167.33335,425.47356 167.61455,424.88741 C 167.8302,424.43426 167.9366,423.76641 167.9366,422.88481 L 167.948,422.14856 z "
   id="path179" /><path
   d="M 173.02765,428.08606 L 173.02765,411.75746 L 175.0312,411.75746 L 175.0312,428.08606 L 173.02765,428.08606 z "
   id="path181" /><path
   d="M 184.42765,428.08606 L 184.42765,411.75746 L 186.4312,411.75746 L 186.4312,428.08606 L 184.42765,428.08606 z "
   id="path183" /><path
   d="M 188.79575,422.17041 C 188.79575,419.97971 189.40375,418.35616 190.6207,417.30261 C 191.63625,416.42576 192.876,415.98781 194.33805,415.98781 C 195.96255,415.98781 197.29065,416.52171 198.32235,417.58666 C 199.3531,418.65256 199.86895,420.12506 199.86895,422.00321 C 199.86895,423.52606 199.64095,424.72306 199.18495,425.59516 C 198.72895,426.46821 198.06395,427.14556 197.1928,427.62816 C 196.32165,428.11171 195.36975,428.35301 194.33805,428.35301 C 192.68315,428.35301 191.3465,427.82196 190.3262,426.75986 C 189.3059,425.69871 188.79575,424.16826 188.79575,422.17041 z M 190.85915,422.17231 C 190.85915,423.68756 191.1888,424.82091 191.84905,425.57426 C 192.50835,426.32856 193.3377,426.70476 194.339,426.70476 C 195.33175,426.70476 196.15825,426.32666 196.81755,425.56856 C 197.47685,424.81141 197.80745,423.65716 197.80745,422.10486 C 197.80745,420.64186 197.4759,419.53416 196.8128,418.78081 C 196.1497,418.02651 195.32605,417.65031 194.33995,417.65031 C 193.3396,417.65031 192.5093,418.02556 191.85,418.77606 C 191.1888,419.52561 190.85915,420.65801 190.85915,422.17231 z "
   id="path185" /><path
   d="M 204.07365,428.08606 L 202.2183,428.08606 L 202.2183,411.75746 L 204.22185,411.75746 L 204.22185,417.58001 C 205.0683,416.51886 206.14845,415.98781 207.46325,415.98781 C 208.19095,415.98781 208.8797,416.13411 209.5295,416.42766 C 210.1793,416.72216 210.71415,417.13351 211.1331,417.66456 C 211.55205,418.19561 211.88075,418.83591 212.11825,419.58546 C 212.35575,420.33596 212.4745,421.13776 212.4745,421.99181 C 212.4745,424.01911 211.9729,425.58566 210.97065,426.69241 C 209.9684,427.79916 208.76475,428.35206 207.36065,428.35206 C 205.9632,428.35206 204.86785,427.76971 204.07365,426.60406 L 204.07365,428.08606 z M 204.0442,422.08206 C 204.0442,423.50041 204.23705,424.52546 204.62275,425.15721 C 205.25355,426.18986 206.1076,426.70571 207.183,426.70571 C 208.0589,426.70571 208.81605,426.32571 209.45445,425.56381 C 210.09285,424.80286 210.41205,423.66761 210.41205,422.15996 C 210.41205,420.61526 210.10615,419.47526 209.4934,418.73901 C 208.88065,418.00466 208.1406,417.63606 207.2723,417.63606 C 206.3964,417.63606 205.63925,418.01701 205.00085,418.77796 C 204.3634,419.53986 204.0442,420.64091 204.0442,422.08206 z "
   id="path187" /><path
   d="M 222.98055,424.27086 L 225.0582,424.53781 C 224.7314,425.74621 224.1272,426.68481 223.24465,427.35171 C 222.36115,428.01956 221.23445,428.35301 219.86075,428.35301 C 218.1327,428.35301 216.7609,427.82006 215.74915,426.75416 C 214.73645,425.68921 214.2301,424.19391 214.2301,422.27016 C 214.2301,420.27991 214.74215,418.73521 215.76625,417.63606 C 216.7894,416.53786 218.11845,415.98781 219.75055,415.98781 C 221.33135,415.98781 222.62145,416.52646 223.6237,417.60281 C 224.625,418.68011 225.1266,420.19536 225.1266,422.14761 C 225.1266,422.26636 225.1228,422.44496 225.1152,422.68246 L 216.29445,422.68246 C 216.36855,423.98206 216.73525,424.97861 217.39645,425.66926 C 218.05575,426.36086 218.88035,426.70571 219.86645,426.70571 C 220.6008,426.70571 221.2278,426.51191 221.7465,426.12526 C 222.2652,425.73766 222.67655,425.12016 222.98055,424.27086 z M 216.41225,421.03516 L 223.00335,421.03516 C 222.91405,420.03956 222.6623,419.29286 222.2481,418.79506 C 221.61065,418.02271 220.78415,417.63606 219.76955,417.63606 C 218.8509,417.63606 218.07855,417.94481 217.4525,418.56136 C 216.8255,419.17791 216.47875,420.00251 216.41225,421.03516 z "
   id="path189" />
<path
   d="M 383.99415,29.306458 L 383.99415,12.977858 L 390.1492,12.977858 C 391.2322,12.977858 392.05965,13.030108 392.6306,13.133658 C 393.4324,13.267608 394.10405,13.522208 394.64555,13.897458 C 395.18705,14.272708 395.62215,14.798058 395.95275,15.473508 C 396.28335,16.149908 396.4477,16.892808 396.4477,17.702208 C 396.4477,19.091108 396.0069,20.266258 395.1234,21.228608 C 394.2418,22.190958 392.64865,22.671658 390.34205,22.671658 L 386.1611,22.671658 L 386.1611,29.306458 L 383.99415,29.306458 L 383.99415,29.306458 z M 386.1611,20.741258 L 390.37435,20.741258 C 391.768,20.741258 392.7579,20.481908 393.3431,19.962258 C 393.92925,19.442608 394.22185,18.712058 394.22185,17.768708 C 394.22185,17.085658 394.0499,16.501408 393.70505,16.015008 C 393.3602,15.528608 392.90515,15.207508 392.34275,15.051708 C 391.9789,14.954808 391.30915,14.907308 390.3297,14.907308 L 386.1611,14.907308 L 386.1611,20.741258 z "
   id="path193" /><path
   d="M 406.65355,27.851058 C 405.90875,28.480908 405.19245,28.924558 404.5075,29.183908 C 403.82065,29.442308 403.0863,29.572458 402.3016,29.572458 C 401.00485,29.572458 400.0083,29.255158 399.31195,28.619608 C 398.6156,27.985008 398.26695,27.172758 398.26695,26.184758 C 398.26695,25.605258 398.39805,25.076108 398.6612,24.597308 C 398.92435,24.118508 399.2692,23.733758 399.6948,23.444008 C 400.12135,23.154258 400.60015,22.934808 401.135,22.786608 C 401.5264,22.683058 402.12015,22.582358 402.91245,22.486408 C 404.5265,22.293558 405.7159,22.062708 406.4797,21.794808 C 406.4873,21.520258 406.4911,21.346408 406.4911,21.272308 C 406.4911,20.457208 406.303,19.882458 405.92395,19.549008 C 405.4138,19.096808 404.65285,18.870708 403.64585,18.870708 C 402.70535,18.870708 402.0109,19.035058 401.5625,19.364708 C 401.11505,19.694358 400.7835,20.276708 400.5688,21.112708 L 398.60895,20.845758 C 398.7866,20.007858 399.0792,19.331458 399.4877,18.815608 C 399.8962,18.300708 400.48615,17.903608 401.25565,17.626208 C 402.028,17.348808 402.92195,17.209158 403.93655,17.209158 C 404.9464,17.209158 405.76625,17.327908 406.39515,17.565408 C 407.02595,17.802908 407.48955,18.101208 407.7869,18.460308 C 408.08425,18.820358 408.2904,19.274458 408.40915,19.823558 C 408.47565,20.164608 408.5089,20.781158 408.5089,21.672258 L 408.5089,24.345558 C 408.5089,26.209458 408.5526,27.389358 408.6381,27.884308 C 408.7236,28.379258 408.8946,28.853308 409.1473,29.306458 L 407.05445,29.306458 C 406.8464,28.891308 406.71245,28.406808 406.65355,27.851058 z M 406.49015,23.368958 C 405.7634,23.666308 404.6728,23.918058 403.22025,24.126108 C 402.3966,24.244858 401.81425,24.378808 401.47225,24.527008 C 401.13025,24.675208 400.8671,24.892758 400.68185,25.178708 C 400.4966,25.464658 400.40445,25.781958 400.40445,26.130608 C 400.40445,26.665458 400.60585,27.110058 401.01055,27.466308 C 401.41335,27.822558 402.0033,28.001158 402.7804,28.001158 C 403.55085,28.001158 404.23485,27.832058 404.8362,27.493858 C 405.43565,27.155658 405.8755,26.693958 406.15765,26.107808 C 406.3733,25.654658 406.4797,24.987758 406.4797,24.105208 L 406.49015,23.368958 z "
   id="path195" /><path
   d="M 411.6002,29.306458 L 411.6002,17.475158 L 413.39665,17.475158 L 413.39665,19.275408 C 413.8574,18.433708 414.2849,17.878908 414.6744,17.611008 C 415.0658,17.343108 415.49425,17.209158 415.96355,17.209158 C 416.6409,17.209158 417.3287,17.425758 418.0279,17.857058 L 417.32775,19.712408 C 416.83755,19.429308 416.3502,19.287758 415.8619,19.287758 C 415.42395,19.287758 415.0316,19.419808 414.6839,19.682958 C 414.3362,19.946108 414.08825,20.311858 413.94005,20.779258 C 413.7168,21.491758 413.6047,22.270758 413.6047,23.117208 L 413.6047,29.307408 L 411.6002,29.307408 L 411.6002,29.306458 z "
   id="path197" /><path
   d="M 419.22205,15.278758 L 419.22205,12.977858 L 421.2256,12.977858 L 421.2256,15.278758 L 419.22205,15.278758 z M 419.22205,29.306458 L 419.22205,17.475158 L 421.2256,17.475158 L 421.2256,29.305508 L 419.22205,29.305508 L 419.22205,29.306458 z "
   id="path199" /><path
   d="M 432.35485,25.491258 L 434.4325,25.758208 C 434.1057,26.966608 433.50245,27.905208 432.6199,28.572108 C 431.7364,29.239958 430.60875,29.573408 429.23505,29.573408 C 427.50795,29.573408 426.13615,29.040458 425.12345,27.974558 C 424.11075,26.908658 423.6044,25.414308 423.6044,23.490558 C 423.6044,21.500308 424.1155,19.955608 425.1396,18.856458 C 426.1637,17.757308 427.49275,17.208208 429.1239,17.208208 C 430.70375,17.208208 431.9948,17.746858 432.99705,18.823208 C 433.99835,19.900508 434.499,21.415758 434.499,23.368008 C 434.499,23.486758 434.4952,23.665358 434.4876,23.902858 L 425.66685,23.902858 C 425.74095,25.203408 426.10765,26.199008 426.7679,26.889658 C 427.42815,27.581258 428.25275,27.926108 429.2379,27.926108 C 429.97225,27.926108 430.6002,27.732308 431.1189,27.345658 C 431.64045,26.958058 432.05085,26.339608 432.35485,25.491258 z M 425.78655,22.255558 L 432.37765,22.255558 C 432.28835,21.259958 432.03755,20.513258 431.62145,20.015458 C 430.98495,19.243108 430.15845,18.856458 429.14385,18.856458 C 428.22425,18.856458 427.45285,19.165208 426.8268,19.781758 C 426.1998,20.398308 425.85305,21.222908 425.78655,22.255558 z "
   id="path201" /><path
   d="M 441.33235,27.521408 L 441.6297,29.291258 C 441.06445,29.410008 440.55905,29.469858 440.11255,29.469858 C 439.38295,29.469858 438.8196,29.354908 438.41775,29.124058 C 438.0159,28.893208 437.73375,28.591108 437.57035,28.214908 C 437.406,27.839658 437.3243,27.050208 437.3243,25.845608 L 437.3243,19.034108 L 435.83945,19.034108 L 435.83945,17.475158 L 437.3243,17.475158 L 437.3243,14.547258 L 439.32785,13.344558 L 439.32785,17.475158 L 441.3314,17.475158 L 441.3314,19.034108 L 439.32785,19.034108 L 439.32785,25.959608 C 439.32785,26.532458 439.36205,26.900108 439.43235,27.063508 C 439.50265,27.226908 439.6176,27.358008 439.7753,27.453958 C 439.9349,27.550858 440.161,27.598358 440.45645,27.598358 C 440.6778,27.599308 440.9704,27.572708 441.33235,27.521408 z "
   id="path203" /><path
   d="M 451.0062,27.851058 C 450.2614,28.480908 449.5451,28.924558 448.86015,29.183908 C 448.1733,29.442308 447.43895,29.572458 446.65425,29.572458 C 445.3575,29.572458 444.36095,29.255158 443.6646,28.619608 C 442.96825,27.985008 442.6196,27.172758 442.6196,26.184758 C 442.6196,25.605258 442.7507,25.076108 443.01385,24.597308 C 443.277,24.118508 443.62185,23.733758 444.04745,23.444008 C 444.474,23.154258 444.9528,22.934808 445.48765,22.786608 C 445.87905,22.683058 446.4728,22.582358 447.2651,22.486408 C 448.87915,22.293558 450.06855,22.062708 450.83235,21.794808 C 450.83995,21.520258 450.84375,21.346408 450.84375,21.272308 C 450.84375,20.457208 450.65565,19.882458 450.2766,19.549008 C 449.76645,19.096808 449.0055,18.870708 447.9985,18.870708 C 447.058,18.870708 446.36355,19.035058 445.91515,19.364708 C 445.4677,19.694358 445.13615,20.276708 444.92145,21.112708 L 442.9616,20.845758 C 443.13925,20.007858 443.43185,19.331458 443.84035,18.815608 C 444.24885,18.300708 444.8388,17.903608 445.6083,17.626208 C 446.38065,17.348808 447.2746,17.209158 448.2892,17.209158 C 449.29905,17.209158 450.1189,17.327908 450.7478,17.565408 C 451.3786,17.802908 451.8422,18.101208 452.13955,18.460308 C 452.4369,18.820358 452.64305,19.274458 452.7618,19.823558 C 452.8283,20.164608 452.86155,20.781158 452.86155,21.672258 L 452.86155,24.345558 C 452.86155,26.209458 452.90525,27.389358 452.99075,27.884308 C 453.07625,28.379258 453.24725,28.853308 453.49995,29.306458 L 451.4071,29.306458 C 451.19905,28.891308 451.06605,28.406808 451.0062,27.851058 z M 450.8428,23.368958 C 450.11605,23.666308 449.02545,23.918058 447.5729,24.126108 C 446.74925,24.244858 446.1669,24.378808 445.8249,24.527008 C 445.4829,24.675208 445.21975,24.892758 445.0345,25.178708 C 444.84925,25.464658 444.7571,25.781958 444.7571,26.130608 C 444.7571,26.665458 444.9585,27.110058 445.3632,27.466308 C 445.766,27.822558 446.35595,28.001158 447.13305,28.001158 C 447.9035,28.001158 448.5875,27.832058 449.18885,27.493858 C 449.7883,27.155658 450.22815,26.693958 450.5103,26.107808 C 450.72595,25.654658 450.83235,24.987758 450.83235,24.105208 L 450.8428,23.368958 z "
   id="path205" /><path
   d="M 455.9234,29.306458 L 455.9234,12.977858 L 457.92695,12.977858 L 457.92695,29.306458 L 455.9234,29.306458 z "
   id="path207" /><path
   d="M 467.3234,29.306458 L 467.3234,12.977858 L 469.32695,12.977858 L 469.32695,29.306458 L 467.3234,29.306458 z "
   id="path209" /><path
   d="M 471.6915,23.390808 C 471.6915,21.200108 472.2995,19.577508 473.51645,18.523008 C 474.53295,17.646158 475.7727,17.208208 477.2338,17.208208 C 478.8583,17.208208 480.1864,17.741158 481.2181,18.807058 C 482.24885,19.872958 482.7647,21.345458 482.7647,23.223608 C 482.7647,24.746458 482.5367,25.943458 482.0807,26.815558 C 481.6247,27.688608 480.9597,28.365958 480.0876,28.848558 C 479.2155,29.331158 478.2636,29.572458 477.23285,29.572458 C 475.5789,29.572458 474.2413,29.041408 473.22005,27.979308 C 472.2007,26.918158 471.6915,25.388658 471.6915,23.390808 z M 473.7549,23.392708 C 473.7549,24.907958 474.08455,26.041308 474.7448,26.795608 C 475.40315,27.548958 476.2325,27.926108 477.2338,27.926108 C 478.2275,27.926108 479.05305,27.548008 479.7114,26.789908 C 480.37165,26.032758 480.7013,24.878508 480.7013,23.326208 C 480.7013,21.863208 480.36975,20.755508 479.7057,20.001208 C 479.04355,19.247858 478.2199,18.870708 477.23285,18.870708 C 476.23155,18.870708 475.4022,19.245958 474.74385,19.995508 C 474.0836,20.746008 473.7549,21.878408 473.7549,23.392708 z "
   id="path211" /><path
   d="M 486.9694,29.306458 L 485.11405,29.306458 L 485.11405,12.977858 L 487.1176,12.977858 L 487.1176,18.800408 C 487.965,17.739258 489.0442,17.208208 490.35805,17.208208 C 491.08575,17.208208 491.7745,17.354508 492.42525,17.648058 C 493.07505,17.941608 493.60895,18.353908 494.02885,18.884958 C 494.4478,19.416008 494.7765,20.056308 495.014,20.805858 C 495.2515,21.556358 495.3712,22.358158 495.3712,23.212208 C 495.3712,25.239508 494.8696,26.806058 493.86735,27.912808 C 492.8632,29.019558 491.66145,29.572458 490.2564,29.572458 C 488.85895,29.572458 487.76455,28.990108 486.9694,27.824458 L 486.9694,29.306458 L 486.9694,29.306458 z M 486.93995,23.301508 C 486.93995,24.719858 487.1328,25.744908 487.5185,26.376658 C 488.1493,27.409308 489.00335,27.925158 490.07875,27.925158 C 490.95465,27.925158 491.7118,27.545158 492.3502,26.783258 C 492.9886,26.022308 493.3078,24.887058 493.3078,23.379408 C 493.3078,21.834708 493.0019,20.694708 492.38915,19.958458 C 491.7764,19.223158 491.03635,18.855508 490.16805,18.855508 C 489.29215,18.855508 488.535,19.236458 487.8966,19.997408 C 487.2582,20.759308 486.93995,21.861308 486.93995,23.301508 z "
   id="path213" /><path
   d="M 505.8763,25.491258 L 507.95395,25.758208 C 507.62715,26.966608 507.0239,27.905208 506.14135,28.572108 C 505.25785,29.239958 504.1302,29.573408 502.7565,29.573408 C 501.0294,29.573408 499.6576,29.040458 498.6449,27.974558 C 497.6322,26.908658 497.12585,25.414308 497.12585,23.490558 C 497.12585,21.500308 497.63695,19.955608 498.66105,18.856458 C 499.68515,17.757308 501.0142,17.208208 502.64535,17.208208 C 504.2252,17.208208 505.51625,17.746858 506.5185,18.823208 C 507.5198,19.900508 508.02045,21.415758 508.02045,23.368008 C 508.02045,23.486758 508.01665,23.665358 508.00905,23.902858 L 499.1883,23.902858 C 499.2624,25.203408 499.6291,26.199008 500.28935,26.889658 C 500.9496,27.581258 501.7742,27.926108 502.75935,27.926108 C 503.4937,27.926108 504.12165,27.732308 504.64035,27.345658 C 505.16095,26.958058 505.5723,26.339608 505.8763,25.491258 z M 499.308,22.255558 L 505.8991,22.255558 C 505.8098,21.259958 505.559,20.513258 505.1429,20.015458 C 504.5064,19.243108 503.6799,18.856458 502.6653,18.856458 C 501.7457,18.856458 500.9743,19.165208 500.34825,19.781758 C 499.72125,20.398308 499.37355,21.222908 499.308,22.255558 z "
   id="path215" />
<path
   d="M 567.09145,137.34806 C 567.09145,134.63866 567.8201,132.51731 569.2755,130.98401 C 570.72995,129.45071 572.60905,128.68501 574.9109,128.68501 C 576.41855,128.68501 577.778,129.04506 578.98735,129.76516 C 580.19765,130.48526 581.12105,131.48941 581.75565,132.77761 C 582.39025,134.06581 582.70755,135.52691 582.70755,137.15901 C 582.70755,138.81486 582.37315,140.29591 581.7053,141.60216 C 581.03745,142.90841 580.0903,143.89831 578.8648,144.56996 C 577.64025,145.24161 576.31785,145.57791 574.8995,145.57791 C 573.36335,145.57791 571.98965,145.20646 570.7784,144.46451 C 569.56905,143.72256 568.65135,142.70891 568.0272,141.42451 C 567.40305,140.13916 567.09145,138.78066 567.09145,137.34806 z M 569.3173,137.37561 C 569.3173,139.34211 569.8474,140.89156 570.9057,142.02396 C 571.96305,143.15541 573.29115,143.72161 574.88715,143.72161 C 576.5145,143.72161 577.8521,143.14971 578.90375,142.00686 C 579.9554,140.86401 580.4798,139.24236 580.4798,137.14191 C 580.4798,135.81381 580.2556,134.65386 579.80625,133.66301 C 579.3569,132.67216 578.6995,131.90361 577.83405,131.35831 C 576.96955,130.81301 575.9977,130.54036 574.92135,130.54036 C 573.39185,130.54036 572.07515,131.06571 570.97315,132.11546 C 569.86925,133.16616 569.3173,134.91891 569.3173,137.37561 z "
   id="path219" /><path
   d="M 592.94475,140.96091 L 594.91885,141.22786 C 594.7032,142.58351 594.1522,143.64561 593.26585,144.41226 C 592.3776,145.17986 591.2889,145.56271 589.9969,145.56271 C 588.37905,145.56271 587.0785,145.03356 586.0943,143.97526 C 585.1101,142.91696 584.618,141.40076 584.618,139.42476 C 584.618,138.14701 584.82985,137.02981 585.2526,136.07221 C 585.67535,135.11461 586.31945,134.39546 587.18395,133.91666 C 588.04845,133.43786 588.98895,133.19846 590.0064,133.19846 C 591.2908,133.19846 592.34055,133.52336 593.1566,134.17221 C 593.97265,134.82106 594.4961,135.74351 594.726,136.93861 L 592.78135,137.23596 C 592.5961,136.44366 592.2674,135.84706 591.7962,135.44616 C 591.325,135.04621 590.755,134.84576 590.08715,134.84576 C 589.0773,134.84576 588.25745,135.20771 587.62665,135.93256 C 586.99585,136.65741 586.68045,137.80311 586.68045,139.36966 C 586.68045,140.95901 586.98445,142.11421 587.5934,142.83431 C 588.2014,143.55536 588.9956,143.91541 589.9741,143.91541 C 590.7607,143.91541 591.4181,143.67411 591.94345,143.19056 C 592.4707,142.70701 592.80415,141.96411 592.94475,140.96091 z "
   id="path221" /><path
   d="M 604.34475,140.96091 L 606.31885,141.22786 C 606.1032,142.58351 605.5522,143.64561 604.66585,144.41226 C 603.7776,145.17986 602.6889,145.56271 601.3969,145.56271 C 599.77905,145.56271 598.4785,145.03356 597.4943,143.97526 C 596.5101,142.91696 596.018,141.40076 596.018,139.42476 C 596.018,138.14701 596.22985,137.02981 596.6526,136.07221 C 597.07535,135.11461 597.71945,134.39546 598.58395,133.91666 C 599.44845,133.43786 600.38895,133.19846 601.4064,133.19846 C 602.6908,133.19846 603.74055,133.52336 604.5566,134.17221 C 605.37265,134.82106 605.8961,135.74351 606.126,136.93861 L 604.18135,137.23596 C 603.9961,136.44366 603.6674,135.84706 603.1962,135.44616 C 602.725,135.04621 602.155,134.84576 601.48715,134.84576 C 600.4773,134.84576 599.65745,135.20771 599.02665,135.93256 C 598.39585,136.65741 598.08045,137.80311 598.08045,139.36966 C 598.08045,140.95901 598.38445,142.11421 598.9934,142.83431 C 599.6014,143.55536 600.3956,143.91541 601.3741,143.91541 C 602.1607,143.91541 602.8181,143.67411 603.34345,143.19056 C 603.8707,142.70701 604.20415,141.96411 604.34475,140.96091 z "
   id="path223" /><path
   d="M 608.0412,131.26806 L 608.0412,128.96716 L 610.04475,128.96716 L 610.04475,131.26806 L 608.0412,131.26806 z M 608.0412,145.29481 L 608.0412,133.46446 L 610.04475,133.46446 L 610.04475,145.29481 L 608.0412,145.29481 z "
   id="path225" /><path
   d="M 613.09235,149.82251 L 613.09235,133.46446 L 614.91825,133.46446 L 614.91825,135.00441 C 615.34955,134.40211 615.83595,133.95086 616.3784,133.64876 C 616.9199,133.34761 617.57825,133.19656 618.3506,133.19656 C 619.36045,133.19656 620.2525,133.45591 621.0239,133.97651 C 621.79625,134.49616 622.3805,135.22956 622.7738,136.17671 C 623.1671,137.12386 623.36375,138.16126 623.36375,139.28986 C 623.36375,140.50016 623.1462,141.58981 622.71205,142.55881 C 622.27695,143.52876 621.64615,144.27071 620.81775,144.78656 C 619.98935,145.30241 619.1182,145.56081 618.20525,145.56081 C 617.53645,145.56081 616.93605,145.42021 616.405,145.13806 C 615.873,144.85591 615.43695,144.49966 615.09495,144.06931 L 615.09495,149.82156 L 613.09235,149.82156 L 613.09235,149.82251 z M 614.90305,139.44851 C 614.90305,140.97136 615.21085,142.09521 615.8274,142.82291 C 616.44205,143.55061 617.18875,143.91446 618.0637,143.91446 C 618.9548,143.91446 619.7167,143.53826 620.35035,142.78396 C 620.984,142.02966 621.3013,140.86306 621.3013,139.28131 C 621.3013,137.77461 620.9916,136.64601 620.3722,135.89551 C 619.7528,135.14501 619.01275,134.77071 618.15205,134.77071 C 617.2999,134.77071 616.54465,135.16971 615.8882,135.96771 C 615.2308,136.76666 614.90305,137.92661 614.90305,139.44851 z "
   id="path227" /><path
   d="M 625.7872,131.26806 L 625.7872,128.96716 L 627.79075,128.96716 L 627.79075,131.26806 L 625.7872,131.26806 z M 625.7872,145.29481 L 625.7872,133.46446 L 627.79075,133.46446 L 627.79075,145.29481 L 625.7872,145.29481 z "
   id="path229" /><path
   d="M 635.2169,143.50976 L 635.51425,145.27961 C 634.94995,145.39836 634.4436,145.45821 633.99805,145.45821 C 633.26845,145.45821 632.70415,145.34326 632.3023,145.11241 C 631.9014,144.88156 631.6183,144.57946 631.4549,144.20326 C 631.29055,143.82801 631.20885,143.03856 631.20885,141.83396 L 631.20885,135.02246 L 629.724,135.02246 L 629.724,133.46351 L 631.20885,133.46351 L 631.20885,130.53561 L 633.2124,129.33291 L 633.2124,133.46351 L 635.21595,133.46351 L 635.21595,135.02246 L 633.2124,135.02246 L 633.2124,141.94796 C 633.2124,142.52081 633.24755,142.88846 633.31785,143.05186 C 633.3872,143.21526 633.50215,143.34636 633.6608,143.44231 C 633.81945,143.53826 634.0465,143.58671 634.34195,143.58671 C 634.5633,143.58766 634.85495,143.56201 635.2169,143.50976 z "
   id="path231" /><path
   d="M 644.89075,143.84036 C 644.14595,144.47021 643.4306,144.91386 642.7447,145.17321 C 642.0588,145.43161 641.32445,145.56176 640.5388,145.56176 C 639.24205,145.56176 638.2455,145.24446 637.54915,144.60891 C 636.85375,143.97431 636.50415,143.16206 636.50415,142.17406 C 636.50415,141.59456 636.6362,141.06541 636.89935,140.58661 C 637.16155,140.10781 637.5064,139.72306 637.93295,139.43331 C 638.35855,139.14356 638.8383,138.92411 639.3722,138.77591 C 639.76455,138.67236 640.35735,138.57166 641.1506,138.47571 C 642.76465,138.28286 643.95405,138.05201 644.7169,137.78411 C 644.7245,137.50956 644.7283,137.33571 644.7283,137.26161 C 644.7283,136.44651 644.5402,135.87176 644.1621,135.53831 C 643.651,135.08611 642.891,134.86001 641.884,134.86001 C 640.9435,134.86001 640.2481,135.02436 639.80065,135.35401 C 639.35225,135.68366 639.02165,136.26601 638.806,137.10201 L 636.84615,136.83506 C 637.02475,135.99716 637.31735,135.32076 637.72585,134.80491 C 638.1334,134.29001 638.72335,133.89291 639.4938,133.61551 C 640.26615,133.33811 641.15915,133.19846 642.1747,133.19846 C 643.1836,133.19846 644.00345,133.31721 644.6333,133.55471 C 645.2641,133.79221 645.72675,134.09051 646.0241,134.44961 C 646.32145,134.80966 646.5276,135.26376 646.64635,135.81286 C 646.71285,136.15391 646.7461,136.77046 646.7461,137.66156 L 646.7461,140.33486 C 646.7461,142.19876 646.7898,143.37866 646.8753,143.87361 C 646.96175,144.36856 647.1318,144.84261 647.3845,145.29576 L 645.29165,145.29576 C 645.0836,144.88061 644.9506,144.39516 644.89075,143.84036 z M 644.72735,139.35731 C 644.0006,139.65466 642.91095,139.90641 641.45745,140.11446 C 640.6338,140.23321 640.0524,140.36716 639.7104,140.51536 C 639.3684,140.66356 639.10525,140.88111 638.92,141.16706 C 638.73475,141.45301 638.64165,141.77031 638.64165,142.11896 C 638.64165,142.65381 638.844,143.09841 639.24775,143.45466 C 639.6515,143.81091 640.24145,143.98951 641.01855,143.98951 C 641.789,143.98951 642.473,143.82041 643.0734,143.48221 C 643.67285,143.14401 644.11365,142.68231 644.39485,142.09616 C 644.6105,141.64301 644.7169,140.97611 644.7169,140.09356 L 644.72735,139.35731 z "
   id="path233" /><path
   d="M 649.80795,145.29481 L 649.80795,128.96621 L 651.8115,128.96621 L 651.8115,145.29481 L 649.80795,145.29481 z "
   id="path235" /><path
   d="M 611.7671,172.65481 L 611.7671,156.32621 L 613.77065,156.32621 L 613.77065,172.65481 L 611.7671,172.65481 z "
   id="path237" /><path
   d="M 616.1352,166.73916 C 616.1352,164.54846 616.74415,162.92586 617.9611,161.87136 C 618.97665,160.99451 620.2164,160.55656 621.6775,160.55656 C 623.30295,160.55656 624.6301,161.08951 625.6618,162.15541 C 626.69255,163.22131 627.2084,164.69381 627.2084,166.57196 C 627.2084,168.09481 626.9804,169.29181 626.5244,170.16391 C 626.0684,171.03696 625.4034,171.71431 624.53225,172.19691 C 623.66015,172.67951 622.70825,172.92081 621.67655,172.92081 C 620.0226,172.92081 618.68595,172.38976 617.6647,171.32766 C 616.64535,170.26746 616.1352,168.73796 616.1352,166.73916 z M 618.1986,166.74106 C 618.1986,168.25631 618.5292,169.38966 619.1885,170.14396 C 619.8478,170.89826 620.67715,171.27446 621.6775,171.27446 C 622.6712,171.27446 623.49675,170.89636 624.15605,170.13826 C 624.81535,169.38016 625.145,168.22686 625.145,166.67456 C 625.145,165.21156 624.81345,164.10386 624.15035,163.34956 C 623.48725,162.59526 622.6636,162.21906 621.67655,162.21906 C 620.6762,162.21906 619.84685,162.59431 619.18755,163.34386 C 618.52825,164.09341 618.1986,165.22676 618.1986,166.74106 z "
   id="path239" /><path
   d="M 631.4131,172.65481 L 629.55775,172.65481 L 629.55775,156.32621 L 631.5613,156.32621 L 631.5613,162.14876 C 632.4087,161.08761 633.4879,160.55656 634.8027,160.55656 C 635.5304,160.55656 636.2182,160.70286 636.86895,160.99641 C 637.51875,161.28996 638.0536,161.70226 638.47255,162.23331 C 638.8915,162.76436 639.2202,163.40466 639.4577,164.15421 C 639.6952,164.90471 639.81395,165.70651 639.81395,166.56056 C 639.81395,168.58786 639.3133,170.15441 638.3101,171.26116 C 637.3069,172.36791 636.1042,172.92081 634.7001,172.92081 C 633.30265,172.92081 632.2073,172.33846 631.41215,171.17281 L 631.41215,172.65481 L 631.4131,172.65481 z M 631.3827,166.65081 C 631.3827,168.06916 631.57555,169.09421 631.96125,169.72596 C 632.59205,170.75861 633.4461,171.27446 634.5215,171.27446 C 635.3974,171.27446 636.15455,170.89446 636.79295,170.13256 C 637.43135,169.37161 637.75055,168.23636 637.75055,166.72871 C 637.75055,165.18401 637.44465,164.04401 636.8319,163.30776 C 636.21915,162.57246 635.4791,162.20481 634.6108,162.20481 C 633.7349,162.20481 632.97775,162.58576 632.33935,163.34671 C 631.7019,164.10861 631.3827,165.20966 631.3827,166.65081 z "
   id="path241" /><path
   d="M 650.32,168.83961 L 652.3986,169.10656 C 652.0718,170.31496 651.4676,171.25356 650.58505,171.92046 C 649.70155,172.58831 648.57485,172.92176 647.20115,172.92176 C 645.4731,172.92176 644.1013,172.38881 643.08955,171.32291 C 642.07685,170.25701 641.56955,168.76266 641.56955,166.83891 C 641.56955,164.84866 642.0816,163.30396 643.1057,162.20481 C 644.12885,161.10566 645.4579,160.55656 647.08905,160.55656 C 648.66985,160.55656 649.95995,161.09521 650.9622,162.17156 C 651.9635,163.24886 652.46415,164.76411 652.46415,166.71636 C 652.46415,166.83511 652.46035,167.01371 652.45275,167.25121 L 643.632,167.25121 C 643.7061,168.55176 644.07375,169.54736 644.734,170.23801 C 645.3933,170.92961 646.2179,171.27446 647.204,171.27446 C 647.93835,171.27446 648.5663,171.08066 649.08405,170.69401 C 649.60465,170.30641 650.016,169.68891 650.32,168.83961 z M 643.7517,165.60391 L 650.3428,165.60391 C 650.2535,164.60831 650.0027,163.86161 649.58755,163.36381 C 648.9501,162.59146 648.1236,162.20481 647.109,162.20481 C 646.19035,162.20481 645.41895,162.51356 644.79195,163.13011 C 644.16495,163.74666 643.8182,164.57126 643.7517,165.60391 z "
   id="path243" />
<path
   d="M 518.78585,457.77451 L 520.9528,458.31981 C 520.49965,460.09536 519.68645,461.45006 518.5113,462.38296 C 517.3371,463.31491 515.89975,463.78231 514.2021,463.78231 C 512.4446,463.78231 511.0158,463.42416 509.91475,462.70596 C 508.8137,461.98966 507.9758,460.95131 507.40105,459.59281 C 506.82725,458.23241 506.54035,456.77321 506.54035,455.21426 C 506.54035,453.51281 506.8643,452.02796 507.5122,450.76256 C 508.16105,449.49526 509.0835,448.53291 510.2805,447.87551 C 511.4775,447.21906 512.7942,446.89036 514.2325,446.89036 C 515.86365,446.89036 517.2345,447.30646 518.34695,448.13866 C 519.45845,448.97181 520.2327,450.14126 520.67065,451.65081 L 518.54835,452.15146 C 518.17025,450.96396 517.62115,450.09946 516.90295,449.55796 C 516.18475,449.01646 515.28035,448.74571 514.19165,448.74571 C 512.93955,448.74571 511.8917,449.04591 511.05095,449.64726 C 510.20925,450.24861 509.61835,451.05516 509.2773,452.06881 C 508.9372,453.08151 508.76715,454.12651 508.76715,455.20286 C 508.76715,456.59081 508.96855,457.80206 509.3723,458.83756 C 509.77605,459.87306 510.404,460.64636 511.2552,461.15841 C 512.1064,461.67046 513.0279,461.92696 514.02065,461.92696 C 515.2281,461.92696 516.2503,461.57831 517.08725,460.88006 C 517.9242,460.18181 518.4885,459.14726 518.78585,457.77451 z "
   id="path247" /><path
   d="M 531.44365,459.68591 L 533.5213,459.95286 C 533.1945,461.16031 532.59125,462.09986 531.70775,462.76581 C 530.82425,463.43366 529.69755,463.76806 528.32385,463.76806 C 526.5958,463.76806 525.224,463.23511 524.21225,462.16826 C 523.19955,461.10331 522.6932,459.60896 522.6932,457.68521 C 522.6932,455.69401 523.2043,454.15026 524.2284,453.05016 C 525.25155,451.95196 526.5806,451.40286 528.2127,451.40286 C 529.79255,451.40286 531.08265,451.94056 532.0849,453.01691 C 533.08715,454.09516 533.5878,455.60946 533.5878,457.56266 C 533.5878,457.68141 533.584,457.86001 533.5764,458.09751 L 524.75565,458.09751 C 524.82975,459.39711 525.19645,460.39271 525.8567,461.08336 C 526.516,461.77591 527.3406,462.12076 528.3267,462.12076 C 529.06105,462.12076 529.68805,461.92696 530.20675,461.54031 C 530.72735,461.15176 531.13965,460.53331 531.44365,459.68591 z M 524.87535,456.45021 L 531.46645,456.45021 C 531.37715,455.45366 531.1254,454.70791 530.71025,454.20916 C 530.0728,453.43681 529.24725,453.05111 528.23265,453.05111 C 527.31305,453.05111 526.5407,453.35891 525.9156,453.97546 C 525.28765,454.59201 524.9409,455.41661 524.87535,456.45021 z "
   id="path249" /><path
   d="M 536.02645,463.50016 L 536.02645,451.66981 L 537.8229,451.66981 L 537.8229,453.47006 C 538.2827,452.62741 538.7102,452.07261 539.10065,451.80471 C 539.4911,451.53681 539.9205,451.40286 540.38885,451.40286 C 541.0662,451.40286 541.75495,451.61851 542.45415,452.05076 L 541.75305,453.90516 C 541.2638,453.62206 540.7755,453.48146 540.2872,453.48146 C 539.8502,453.48146 539.45785,453.61351 539.1092,453.87666 C 538.76245,454.13981 538.51355,454.50556 538.36535,454.97296 C 538.14305,455.68546 538.03095,456.46446 538.03095,457.31091 L 538.03095,463.50111 L 536.02645,463.50111 L 536.02645,463.50016 z "
   id="path251" /><path
   d="M 551.71665,459.68591 L 553.7943,459.95286 C 553.4675,461.16031 552.86425,462.09986 551.98075,462.76581 C 551.09725,463.43366 549.97055,463.76806 548.59685,463.76806 C 546.8688,463.76806 545.497,463.23511 544.48525,462.16826 C 543.47255,461.10331 542.9662,459.60896 542.9662,457.68521 C 542.9662,455.69401 543.4773,454.15026 544.5014,453.05016 C 545.52455,451.95196 546.8536,451.40286 548.4857,451.40286 C 550.06555,451.40286 551.35565,451.94056 552.3579,453.01691 C 553.36015,454.09516 553.8608,455.60946 553.8608,457.56266 C 553.8608,457.68141 553.857,457.86001 553.8494,458.09751 L 545.02865,458.09751 C 545.10275,459.39711 545.46945,460.39271 546.1297,461.08336 C 546.789,461.77591 547.6136,462.12076 548.5997,462.12076 C 549.33405,462.12076 549.96105,461.92696 550.47975,461.54031 C 551.00035,461.15176 551.41265,460.53331 551.71665,459.68591 z M 545.14835,456.45021 L 551.73945,456.45021 C 551.65015,455.45366 551.3984,454.70791 550.98325,454.20916 C 550.3458,453.43681 549.52025,453.05111 548.50565,453.05111 C 547.58605,453.05111 546.8137,453.35891 546.1886,453.97546 C 545.56065,454.59201 545.2139,455.41661 545.14835,456.45021 z "
   id="path253" /><path
   d="M 558.17,463.50016 L 556.31465,463.50016 L 556.31465,447.17156 L 558.3182,447.17156 L 558.3182,452.99411 C 559.16465,451.93296 560.24385,451.40191 561.55865,451.40191 C 562.28635,451.40191 562.9751,451.54821 563.6249,451.84176 C 564.2747,452.13531 564.8086,452.54666 565.2285,453.07771 C 565.64745,453.60971 565.97615,454.25001 566.21365,454.99956 C 566.45115,455.74911 566.57085,456.55186 566.57085,457.40591 C 566.57085,459.43226 566.06925,460.99976 565.06605,462.10556 C 564.06285,463.21326 562.86015,463.76616 561.45605,463.76616 C 560.0586,463.76616 558.96325,463.18381 558.16905,462.01816 L 558.16905,463.50016 L 558.17,463.50016 z M 558.14055,457.49616 C 558.14055,458.91356 558.3334,459.93956 558.7191,460.57036 C 559.3499,461.60396 560.20395,462.11981 561.27935,462.11981 C 562.15525,462.11981 562.9124,461.73981 563.5508,460.97696 C 564.1892,460.21601 564.5084,459.08171 564.5084,457.57406 C 564.5084,456.02841 564.2025,454.88936 563.58975,454.15216 C 562.977,453.41781 562.23695,453.05016 561.36865,453.05016 C 560.49275,453.05016 559.7356,453.43016 559.0972,454.19111 C 558.45975,454.95396 558.14055,456.05406 558.14055,457.49616 z "
   id="path255" /><path
   d="M 577.0769,459.68591 L 579.15455,459.95286 C 578.82775,461.16031 578.2245,462.09986 577.341,462.76581 C 576.4575,463.43366 575.3308,463.76806 573.9571,463.76806 C 572.22905,463.76806 570.85725,463.23511 569.8455,462.16826 C 568.8328,461.10331 568.32645,459.60896 568.32645,457.68521 C 568.32645,455.69401 568.83755,454.15026 569.86165,453.05016 C 570.8848,451.95196 572.21385,451.40286 573.84595,451.40286 C 575.4258,451.40286 576.7159,451.94056 577.71815,453.01691 C 578.7204,454.09516 579.22105,455.60946 579.22105,457.56266 C 579.22105,457.68141 579.21725,457.86001 579.20965,458.09751 L 570.38985,458.09751 C 570.46395,459.39711 570.83065,460.39271 571.4909,461.08336 C 572.1502,461.77591 572.9748,462.12076 573.9609,462.12076 C 574.69525,462.12076 575.32225,461.92696 575.84095,461.54031 C 576.3606,461.15176 576.7729,460.53331 577.0769,459.68591 z M 570.5086,456.45021 L 577.0997,456.45021 C 577.0104,455.45366 576.75865,454.70791 576.3435,454.20916 C 575.70605,453.43681 574.8805,453.05111 573.8659,453.05111 C 572.9463,453.05111 572.17395,453.35891 571.54885,453.97546 C 570.9209,454.59201 570.5751,455.41661 570.5086,456.45021 z "
   id="path257" /><path
   d="M 581.63025,463.50016 L 581.63025,447.17156 L 583.6338,447.17156 L 583.6338,463.50016 L 581.63025,463.50016 z "
   id="path259" /><path
   d="M 586.69565,463.50016 L 586.69565,447.17156 L 588.6992,447.17156 L 588.6992,463.50016 L 586.69565,463.50016 z "
   id="path261" /><path
   d="M 599.55485,463.50016 L 599.55485,461.76736 C 598.6343,463.09926 597.3841,463.76711 595.8033,463.76711 C 595.106,463.76711 594.4543,463.63316 593.84915,463.36621 C 593.244,463.09926 592.7956,462.76201 592.50205,462.35636 C 592.2085,461.95166 592.0033,461.45671 591.88455,460.87056 C 591.80285,460.47726 591.762,459.85311 591.762,458.99811 L 591.762,451.66886 L 593.76555,451.66886 L 593.76555,458.23241 C 593.76555,459.28026 593.8064,459.98706 593.8881,460.34996 C 594.01445,460.87721 594.2814,461.29046 594.6899,461.59256 C 595.0984,461.89466 595.6038,462.04476 596.20515,462.04476 C 596.80745,462.04476 597.37175,461.89086 597.89805,461.58211 C 598.42625,461.27336 598.79865,460.85346 599.0181,460.32336 C 599.23755,459.79326 599.34775,459.02091 599.34775,458.01011 L 599.34775,451.66886 L 601.3513,451.66886 L 601.3513,463.49921 L 599.55485,463.49921 L 599.55485,463.50016 z "
   id="path263" /><path
   d="M 604.4901,463.50016 L 604.4901,451.66981 L 606.28655,451.66981 L 606.28655,453.32851 C 606.65705,452.74996 607.14915,452.28351 607.7657,451.93106 C 608.38035,451.57861 609.08145,451.40191 609.8671,451.40191 C 610.74205,451.40191 611.4593,451.58336 612.0198,451.94721 C 612.57935,452.31106 612.97455,452.81931 613.20445,453.47196 C 614.14115,452.09161 615.36095,451.40096 616.86385,451.40096 C 618.03805,451.40096 618.94245,451.72586 619.5742,452.37471 C 620.2069,453.02451 620.52325,454.02581 620.52325,455.37671 L 620.52325,463.49826 L 618.5197,463.49826 L 618.5197,456.04456 C 618.5197,455.24276 618.45415,454.66421 618.324,454.31176 C 618.19385,453.95931 617.95825,453.67526 617.6172,453.46056 C 617.2752,453.24491 616.8743,453.13756 616.41355,453.13756 C 615.58135,453.13756 614.88975,453.41401 614.34065,453.96691 C 613.79155,454.51981 613.517,455.40711 613.517,456.62406 L 613.517,463.49826 L 611.51345,463.49826 L 611.51345,455.81086 C 611.51345,454.91976 611.35005,454.25001 611.02325,453.80541 C 610.69645,453.36081 610.16255,453.13756 609.4206,453.13756 C 608.85725,453.13756 608.3357,453.28576 607.8569,453.58311 C 607.37905,453.88046 607.0323,454.31461 606.81665,454.88651 C 606.601,455.45841 606.4946,456.28301 606.4946,457.35936 L 606.4946,463.49921 L 604.4901,463.49921 L 604.4901,463.50016 z "
   id="path265" />
<path
   d="M 253.5563,468.47151 L 253.5563,452.14291 L 259.67905,452.14291 C 260.9264,452.14291 261.9258,452.30821 262.67915,452.63881 C 263.4325,452.96941 264.02245,453.47861 264.449,454.16451 C 264.87555,454.85326 265.0893,455.57051 265.0893,456.32101 C 265.0893,457.02021 264.90025,457.67761 264.52215,458.29416 C 264.14405,458.91071 263.5731,459.40851 262.81025,459.78661 C 263.7954,460.07636 264.5516,460.56941 265.0817,461.26766 C 265.6118,461.96591 265.8759,462.78956 265.8759,463.73956 C 265.8759,464.50431 265.7144,465.21491 265.3914,465.87136 C 265.0684,466.52781 264.67035,467.03511 264.19535,467.39136 C 263.72035,467.74761 263.1247,468.01646 262.40935,468.19886 C 261.694,468.38126 260.8162,468.47151 259.7769,468.47151 L 253.5563,468.47151 L 253.5563,468.47151 z M 255.72325,459.00096 L 259.2506,459.00096 C 260.20725,459.00096 260.89315,458.93826 261.30925,458.81191 C 261.85835,458.64851 262.2716,458.37871 262.54995,458.00061 C 262.82735,457.62251 262.967,457.14751 262.967,456.57561 C 262.967,456.03506 262.83685,455.55911 262.5775,455.14681 C 262.31815,454.73451 261.9467,454.45331 261.4641,454.30036 C 260.98245,454.14836 260.155,454.07236 258.98365,454.07236 L 255.72325,454.07236 L 255.72325,459.00096 L 255.72325,459.00096 z M 255.72325,466.54206 L 259.7864,466.54206 C 260.4837,466.54206 260.9739,466.51641 261.25605,466.46416 C 261.7529,466.37486 262.169,466.22666 262.5034,466.01861 C 262.8378,465.81056 263.11235,465.50846 263.32705,465.11136 C 263.54175,464.71426 263.65005,464.25636 263.65005,463.73671 C 263.65005,463.12776 263.4933,462.59956 263.18075,462.15021 C 262.8682,461.70086 262.435,461.38546 261.8821,461.20401 C 261.3292,461.02256 260.53405,460.93136 259.4957,460.93136 L 255.72325,460.93136 L 255.72325,466.54206 L 255.72325,466.54206 z "
   id="path269" /><path
   d="M 268.57105,468.47151 L 268.57105,456.64116 L 270.3675,456.64116 L 270.3675,458.44141 C 270.82825,457.60066 271.2548,457.04491 271.64525,456.77701 C 272.0357,456.50911 272.4651,456.37421 272.93345,456.37421 C 273.6108,456.37421 274.2986,456.59176 274.9978,457.02211 L 274.2967,458.87746 C 273.80745,458.59436 273.31915,458.45281 272.83085,458.45281 C 272.39385,458.45281 272.00055,458.58486 271.65285,458.84801 C 271.30515,459.11116 271.0572,459.47691 270.90805,459.94431 C 270.6848,460.65681 270.57365,461.43581 270.57365,462.28226 L 270.57365,468.47246 L 268.57105,468.47246 L 268.57105,468.47151 z "
   id="path271" /><path
   d="M 283.8974,467.01706 C 283.15165,467.64691 282.4363,468.09151 281.75135,468.35086 C 281.06545,468.60831 280.33015,468.73846 279.54545,468.73846 C 278.2487,468.73846 277.25215,468.42116 276.5558,467.78656 C 275.85945,467.15101 275.5108,466.33971 275.5108,465.35171 C 275.5108,464.77221 275.6419,464.24306 275.906,463.76426 C 276.1682,463.28451 276.51305,462.89976 276.9396,462.61001 C 277.3652,462.32026 277.84495,462.10176 278.37885,461.95356 C 278.7712,461.85001 279.364,461.74931 280.15725,461.65336 C 281.77225,461.46051 282.96165,461.22966 283.7245,460.96081 C 283.7321,460.68721 283.7359,460.51336 283.7359,460.43926 C 283.7359,459.62321 283.54685,459.04941 283.1697,458.71596 C 282.6586,458.26281 281.8986,458.03671 280.8916,458.03671 C 279.9511,458.03671 279.2557,458.20201 278.80825,458.53071 C 278.35985,458.86131 278.02925,459.44366 277.81455,460.27871 L 275.8547,460.01176 C 276.03235,459.17481 276.3259,458.49746 276.73345,457.98161 C 277.141,457.46766 277.73095,457.07056 278.5014,456.79221 C 279.27375,456.51386 280.16675,456.37516 281.1823,456.37516 C 282.1912,456.37516 283.01105,456.49391 283.6409,456.73141 C 284.2717,456.96891 284.73435,457.26721 285.0317,457.62726 C 285.32905,457.98731 285.53615,458.44141 285.6549,458.98956 C 285.7214,459.33061 285.75465,459.94811 285.75465,460.83921 L 285.75465,463.51251 C 285.75465,465.37641 285.7974,466.55536 285.8829,467.05126 C 285.96935,467.54526 286.1394,468.02026 286.39305,468.47246 L 284.3002,468.47246 C 284.09025,468.05731 283.9563,467.57281 283.8974,467.01706 z M 283.734,462.53401 C 283.00725,462.83136 281.91665,463.08311 280.46315,463.29116 C 279.6395,463.40991 279.05715,463.54386 278.7161,463.69206 C 278.37505,463.84026 278.11095,464.05781 277.9257,464.34376 C 277.74045,464.62971 277.6483,464.94701 277.6483,465.29566 C 277.6483,465.83051 277.8497,466.27511 278.25345,466.63136 C 278.6572,466.98761 279.24715,467.16621 280.02425,467.16621 C 280.7947,467.16621 281.4787,466.99711 282.0791,466.65986 C 282.67855,466.32261 283.11935,465.85996 283.40055,465.27381 C 283.6162,464.82066 283.7226,464.15281 283.7226,463.27026 L 283.734,462.53401 z "
   id="path273" /><path
   d="M 288.8735,454.44381 L 288.8735,452.14291 L 290.87705,452.14291 L 290.87705,454.44381 L 288.8735,454.44381 z M 288.8735,468.47151 L 288.8735,456.64116 L 290.87705,456.64116 L 290.87705,468.47151 L 288.8735,468.47151 z "
   id="path275" /><path
   d="M 293.9237,468.47151 L 293.9237,456.64116 L 295.72015,456.64116 L 295.72015,458.32266 C 296.5894,457.02401 297.8434,456.37421 299.485,456.37421 C 300.1975,456.37421 300.853,456.50246 301.45055,456.75801 C 302.0481,457.01546 302.49555,457.35176 302.7929,457.76786 C 303.09025,458.18396 303.29735,458.67701 303.41705,459.24891 C 303.49115,459.62036 303.5282,460.27111 303.5282,461.19926 L 303.5282,468.47246 L 301.52465,468.47246 L 301.52465,461.27621 C 301.52465,460.45921 301.44675,459.84836 301.29095,459.44366 C 301.13515,459.03896 300.8587,458.71501 300.4616,458.47371 C 300.06545,458.23241 299.59995,458.11176 299.0651,458.11176 C 298.21295,458.11176 297.47575,458.38251 296.8573,458.92591 C 296.2379,459.46741 295.9282,460.49531 295.9282,462.01151 L 295.9282,468.47246 L 293.9237,468.47246 L 293.9237,468.47151 z "
   id="path277" /><path
   d="M 312.1371,464.93846 L 314.1264,464.62686 C 314.23755,465.42296 314.54725,466.03191 315.05645,466.45656 C 315.56375,466.87931 316.27435,467.09116 317.18635,467.09116 C 318.1069,467.09116 318.789,466.90401 319.2336,466.52876 C 319.6782,466.15351 319.9005,465.71366 319.9005,465.20731 C 319.9005,464.75416 319.70575,464.39791 319.31435,464.13856 C 319.04075,463.95996 318.35865,463.73291 317.26995,463.45741 C 315.8022,463.08596 314.78475,462.76486 314.21475,462.49411 C 313.6457,462.22336 313.21345,461.84811 312.92085,461.36931 C 312.62635,460.89051 312.4791,460.36041 312.4791,459.78091 C 312.4791,459.25366 312.59975,458.76631 312.84105,458.31696 C 313.08235,457.86761 313.41105,457.49521 313.8262,457.19691 C 314.1378,456.96701 314.56245,456.77131 315.1011,456.61171 C 315.63975,456.45211 316.2164,456.37231 316.832,456.37231 C 317.76015,456.37231 318.5743,456.50721 319.2754,456.77511 C 319.9765,457.04206 320.49425,457.40591 320.82865,457.86286 C 321.16305,458.32076 321.39295,458.93161 321.5193,459.69826 L 319.55945,459.96521 C 319.47015,459.35436 319.21365,458.87746 318.7871,458.53451 C 318.36055,458.19346 317.75825,458.02056 316.9802,458.02056 C 316.06155,458.02056 315.40605,458.17256 315.0137,458.47751 C 314.6204,458.78246 314.42375,459.13871 314.42375,459.54721 C 314.42375,459.80656 314.50545,460.04216 314.66885,460.24926 C 314.83225,460.46586 315.0878,460.64351 315.43645,460.78411 C 315.63595,460.85821 316.2259,461.02921 317.20345,461.29616 C 318.61895,461.67426 319.606,461.98491 320.1665,462.22621 C 320.727,462.46846 321.16685,462.81996 321.48605,463.27976 C 321.80525,463.73956 321.96485,464.31146 321.96485,464.99451 C 321.96485,465.66236 321.7701,466.29316 321.3806,466.88311 C 320.9911,467.47306 320.42775,467.93001 319.69245,468.25206 C 318.9581,468.57506 318.1259,468.73656 317.1968,468.73656 C 315.6597,468.73656 314.4874,468.41736 313.68275,467.77896 C 312.8743,467.14151 312.3594,466.19436 312.1371,464.93846 z "
   id="path279" /><path
   d="M 328.71745,466.68646 L 329.0148,468.45631 C 328.4505,468.57506 327.94415,468.63491 327.4986,468.63491 C 326.769,468.63491 326.2047,468.51996 325.80285,468.29006 C 325.40195,468.06016 325.11885,467.75711 324.95545,467.38091 C 324.7911,467.00566 324.7094,466.21621 324.7094,465.01256 L 324.7094,458.20011 L 323.22455,458.20011 L 323.22455,456.64116 L 324.7094,456.64116 L 324.7094,453.71326 L 326.71295,452.51056 L 326.71295,456.64116 L 328.7165,456.64116 L 328.7165,458.20011 L 326.71295,458.20011 L 326.71295,465.12656 C 326.71295,465.69846 326.7481,466.06706 326.8184,466.23046 C 326.88775,466.39386 327.0027,466.52401 327.16135,466.61996 C 327.32,466.71591 327.54705,466.76436 327.8425,466.76436 C 328.06385,466.76436 328.3555,466.73871 328.71745,466.68646 z "
   id="path281" /><path
   d="M 338.75515,464.65631 L 340.83375,464.92326 C 340.50695,466.13261 339.90275,467.07026 339.0202,467.73811 C 338.1367,468.40501 337.01,468.73846 335.6363,468.73846 C 333.90825,468.73846 332.53645,468.20551 331.5247,467.14056 C 330.512,466.07466 330.0047,464.58031 330.0047,462.65561 C 330.0047,460.66631 330.51675,459.12066 331.54085,458.02246 C 332.564,456.92331 333.89305,456.37326 335.5242,456.37326 C 337.105,456.37326 338.3951,456.91191 339.39735,457.98921 C 340.39865,459.06556 340.8993,460.58176 340.8993,462.53306 C 340.8993,462.65181 340.8955,462.83041 340.8879,463.06791 L 332.06715,463.06791 C 332.14125,464.36846 332.5089,465.36406 333.16915,466.05566 C 333.82845,466.74631 334.65305,467.09116 335.63915,467.09116 C 336.3735,467.09116 337.00145,466.89831 337.5192,466.51071 C 338.0398,466.12406 338.45115,465.50656 338.75515,464.65631 z M 332.18685,461.42061 L 338.77795,461.42061 C 338.68865,460.42596 338.43785,459.67831 338.0227,459.18146 C 337.38525,458.40911 336.55875,458.02151 335.54415,458.02151 C 334.6255,458.02151 333.8541,458.33026 333.2271,458.94776 C 332.60105,459.56336 332.25335,460.38891 332.18685,461.42061 z "
   id="path283" /><path
   d="M 343.35695,468.47151 L 343.35695,456.64116 L 345.1534,456.64116 L 345.1534,458.29986 C 345.52485,457.72131 346.01695,457.25486 346.6335,456.90241 C 347.24815,456.54996 347.94925,456.37326 348.7349,456.37326 C 349.60985,456.37326 350.3271,456.55471 350.8876,456.91856 C 351.44715,457.28241 351.84235,457.79066 352.0713,458.44331 C 353.008,457.06296 354.22875,456.37231 355.7307,456.37231 C 356.90585,456.37231 357.8093,456.69721 358.442,457.34796 C 359.0747,457.99776 359.3901,458.99716 359.3901,460.34996 L 359.3901,468.46961 L 357.38655,468.46961 L 357.38655,461.01591 C 357.38655,460.21411 357.32195,459.63746 357.1918,459.28501 C 357.06165,458.93256 356.82605,458.64756 356.485,458.43191 C 356.143,458.21626 355.7421,458.10891 355.28135,458.10891 C 354.44915,458.10891 353.7585,458.38536 353.20845,458.94016 C 352.6584,459.49306 352.38385,460.37846 352.38385,461.59731 L 352.38385,468.46961 L 350.3803,468.46961 L 350.3803,460.78221 C 350.3803,459.89111 350.2169,459.22326 349.89105,458.77771 C 349.56425,458.33121 349.0313,458.10891 348.2884,458.10891 C 347.7241,458.10891 347.2035,458.25711 346.7247,458.55541 C 346.24685,458.85276 345.9001,459.28786 345.68445,459.85881 C 345.4688,460.42976 345.36145,461.25531 345.36145,462.33261 L 345.36145,468.47056 L 343.35695,468.47056 L 343.35695,468.47151 z "
   id="path285" />
</svg>